<svg xmlns="http://www.w3.org/2000/svg" xmlns:xlink="http://www.w3.org/1999/xlink" version="1.1" width="657" height="343" viewBox="0 0 657 343"><g><g><g><path fill="none" stroke="rgb(115, 191, 118)" stroke-width="1" d="M279,196.5A53.5,67,0,0,1,332.5,129.5"/><path fill="none" stroke="rgb(115, 191, 118)" stroke-width="1" d="M401.5,129.5C404.5,129.5,404.5,99.5,407.5,99.5L446.5,99.5"/><path fill="none" stroke="rgb(115, 191, 118)" stroke-width="1" d="M446.5,99.5C449.5,99.5,449.5,54.5,452.5,54.5L517.5,54.5"/><path fill="none" stroke="rgb(115, 191, 118)" stroke-width="1" d="M517.5,54.5C520.5,54.5,520.5,41.5,523.5,41.5L615.5,41.5"/><path fill="none" stroke="rgb(115, 191, 118)" stroke-width="1" d="M517.5,54.5C520.5,54.5,520.5,67.5,523.5,67.5L637.5,67.5"/><path fill="none" stroke="rgb(115, 191, 118)" stroke-width="1" d="M446.5,99.5C449.5,99.5,449.5,93.5,452.5,93.5L527.5,93.5"/><path fill="none" stroke="rgb(115, 191, 118)" stroke-width="1" d="M446.5,99.5C449.5,99.5,449.5,119.5,452.5,119.5L525.5,119.5"/><path fill="none" stroke="rgb(115, 191, 118)" stroke-width="1" d="M446.5,99.5C449.5,99.5,449.5,145.5,452.5,145.5L548.5,145.5"/><path fill="none" stroke="rgb(115, 191, 118)" stroke-width="1" d="M401.5,129.5C404.5,129.5,404.5,183.5,407.5,183.5L497.5,183.5"/><path fill="none" stroke="rgb(115, 191, 118)" stroke-width="1" d="M497.5,183.5C500.5,183.5,500.5,170.5,503.5,170.5L594.5,170.5"/><path fill="none" stroke="rgb(115, 191, 118)" stroke-width="1" d="M497.5,183.5C500.5,183.5,500.5,196.5,503.5,196.5L583.5,196.5"/><path fill="none" stroke="rgb(115, 191, 118)" stroke-width="1" d="M279,196.5A53.5,67,0,0,0,332.5,263.5"/><path fill="none" stroke="rgb(115, 191, 118)" stroke-width="1" d="M397.5,263.5C400.5,263.5,400.5,243.5,403.5,243.5L470.5,243.5"/><path fill="none" stroke="rgb(115, 191, 118)" stroke-width="1" d="M470.5,243.5C473.5,243.5,473.5,230.5,476.5,230.5L525.5,230.5"/><path fill="none" stroke="rgb(115, 191, 118)" stroke-width="1" d="M470.5,243.5C473.5,243.5,473.5,256.5,476.5,256.5L537.5,256.5"/><path fill="none" stroke="rgb(115, 191, 118)" stroke-width="1" d="M397.5,263.5C400.5,263.5,400.5,282.5,403.5,282.5L442.5,282.5"/><path fill="none" stroke="rgb(115, 191, 118)" stroke-width="1" d="M397.5,263.5C400.5,263.5,400.5,308.5,403.5,308.5L473.5,308.5"/><path fill="none" stroke="rgb(115, 191, 118)" stroke-width="1" d="M279,196.5A53.5,62,0,0,0,225.5,134.5"/><path fill="none" stroke="rgb(115, 191, 118)" stroke-width="1" d="M279,196.5A53.5,63,0,0,1,225.5,259.5"/><path fill="none" stroke="rgb(115, 191, 118)" stroke-width="1" d="M172.5,259.5C169.5,259.5,169.5,219.5,166.5,219.5L99.5,219.5"/><path fill="none" stroke="rgb(115, 191, 118)" stroke-width="1" d="M172.5,259.5C169.5,259.5,169.5,245.5,166.5,245.5L120.5,245.5"/><path fill="none" stroke="rgb(115, 191, 118)" stroke-width="1" d="M172.5,259.5C169.5,259.5,169.5,271.5,166.5,271.5L113.5,271.5"/><path fill="none" stroke="rgb(115, 191, 118)" stroke-width="1" d="M172.5,259.5C169.5,259.5,169.5,297.5,166.5,297.5L128.5,297.5"/><path fill="none" stroke="rgb(115, 191, 118)" stroke-width="1" d="M172.5,259.5C169.5,259.5,169.5,323.5,166.5,323.5L136.5,323.5"/><path fill="none" stroke="rgb(115, 191, 118)" stroke-width="1" d="M101.5,107.5C98.5,107.5,98.5,55.5,95.5,55.5L39.5,55.5"/><path fill="none" stroke="rgb(115, 191, 118)" stroke-width="1" d="M101.5,107.5C98.5,107.5,98.5,81.5,95.5,81.5L53.5,81.5"/><path fill="none" stroke="rgb(115, 191, 118)" stroke-width="1" d="M101.5,107.5C98.5,107.5,98.5,107.5,95.5,107.5L46.5,107.5"/><path fill="none" stroke="rgb(115, 191, 118)" stroke-width="1" d="M101.5,107.5C98.5,107.5,98.5,133.5,95.5,133.5L20.5,133.5"/><path fill="none" stroke="rgb(115, 191, 118)" stroke-width="1" d="M101.5,107.5C98.5,107.5,98.5,159.5,95.5,159.5L26.5,159.5"/><path fill="none" stroke="rgb(115, 191, 118)" stroke-width="1" d="M160.5,134.5C157.5,134.5,157.5,107.5,154.5,107.5L101.5,107.5"/><path fill="none" stroke="rgb(115, 191, 118)" stroke-width="1" d="M160.5,134.5C157.5,134.5,157.5,185.5,154.5,185.5L106.5,185.5"/></g><g><path fill="rgba(0, 0, 0, .25)" stroke="none" d="M254.5,179.5h82a22,22,0,0,1,22,22v0a22,22,0,0,1,-22,22h-82a22,22,0,0,1,-22,-22v0a22,22,0,0,1,22,-22z" display="none"/><path fill="rgb(115, 191, 118)" stroke="rgb(115, 191, 118)" d="M246.5,182.5h65a5,5,0,0,1,5,5v18a5,5,0,0,1,-5,5h-65a5,5,0,0,1,-5,-5v-18a5,5,0,0,1,5,-5z" stroke-width="3"/><g fill="white"><text text-rendering="inherit" font-size="16" dy=".8em" y="188.5" font-family="arial,helvetica,sans-serif" x="253.5">PLATO</text></g></g><g><path fill="rgba(0, 0, 0, .25)" stroke="none" d="M353.5,121.5h41a10,10,0,0,1,10,10v6a10,10,0,0,1,-10,10h-41a10,10,0,0,1,-10,-10v-6a10,10,0,0,1,10,-10z" display="none"/><g style="cursor: pointer;"><path fill="white" stroke="gray" d="M333.5,129.5A6,6,0,1,1,321.5,129.5A6,6,0,1,1,333.5,129.5"/><path fill="none" stroke="gray" d="M323,129.5L332,129.5"/></g><path fill="rgb(238, 246, 238)" stroke="rgb(115, 191, 118)" d="M337.5,116.5h61a3,3,0,0,1,3,3v20a3,3,0,0,1,-3,3h-61a3,3,0,0,1,-3,-3v-20a3,3,0,0,1,3,-3z" stroke-width="1"/><g fill="black"><text text-rendering="inherit" font-size="14" dy=".8em" y="122.5" font-family="arial,helvetica,sans-serif" x="354.5">core</text></g></g><g><path fill="rgba(0, 0, 0, .25)" stroke="none" d="M438.5,72h0a21,21,0,0,1,21,21v0a21,21,0,0,1,-21,21h0a21,21,0,0,1,-21,-21v0a21,21,0,0,1,21,-21z" display="none"/><g style="cursor: pointer;"><path fill="white" stroke="gray" d="M417.5,87.5A6,6,0,1,1,405.5,87.5A6,6,0,1,1,417.5,87.5"/><path fill="none" stroke="gray" d="M407,87.5L416,87.5"/></g><path fill="none" stroke="none" d="M422.5,78.5h19a5,5,0,0,1,5,5v8a5,5,0,0,1,-5,5h-19a5,5,0,0,1,-5,-5v-8a5,5,0,0,1,5,-5z" stroke-width="3"/><g fill="black"><text text-rendering="inherit" font-size="12" dy=".8em" y="81.5" font-family="arial,helvetica,sans-serif" x="422.5">vue</text></g></g><g><path fill="rgba(0, 0, 0, .25)" stroke="none" d="M497.5,15h0a33,33,0,0,1,33,33v0a33,33,0,0,1,-33,33h0a33,33,0,0,1,-33,-33v0a33,33,0,0,1,33,-33z" display="none"/><g style="cursor: pointer;"><path fill="white" stroke="gray" d="M462.5,42.5A6,6,0,1,1,450.5,42.5A6,6,0,1,1,462.5,42.5"/><path fill="none" stroke="gray" d="M452,42.5L461,42.5"/></g><path fill="none" stroke="none" d="M467.5,33.5h45a5,5,0,0,1,5,5v8a5,5,0,0,1,-5,5h-45a5,5,0,0,1,-5,-5v-8a5,5,0,0,1,5,-5z" stroke-width="3"/><g fill="black"><text text-rendering="inherit" font-size="12" dy=".8em" y="36.5" font-family="arial,helvetica,sans-serif" x="467.5">vuex-fsa</text></g></g><g><path fill="rgba(0, 0, 0, .25)" stroke="none" d="M584.5,-13h0a48,48,0,0,1,48,48v0a48,48,0,0,1,-48,48h0a48,48,0,0,1,-48,-48v0a48,48,0,0,1,48,-48z" display="none"/><g style="cursor: pointer;" display="none"><path fill="white" stroke="gray" d="M533.5,29.5A6,6,0,1,1,521.5,29.5A6,6,0,1,1,533.5,29.5"/><path fill="none" stroke="gray"/></g><path fill="none" stroke="none" d="M538.5,20.5h72a5,5,0,0,1,5,5v8a5,5,0,0,1,-5,5h-72a5,5,0,0,1,-5,-5v-8a5,5,0,0,1,5,-5z" stroke-width="3"/><g fill="black"><text text-rendering="inherit" font-size="12" dy=".8em" y="23.5" font-family="arial,helvetica,sans-serif" x="538.5">vuex-promise</text></g></g><g><path fill="rgba(0, 0, 0, .25)" stroke="none" d="M599,-2h0a63,63,0,0,1,63,63v0a63,63,0,0,1,-63,63h0a63,63,0,0,1,-63,-63v0a63,63,0,0,1,63,-63z" display="none"/><g style="cursor: pointer;" display="none"><path fill="white" stroke="gray" d="M533.5,55.5A6,6,0,1,1,521.5,55.5A6,6,0,1,1,533.5,55.5"/><path fill="none" stroke="gray"/></g><path fill="none" stroke="none" d="M538.5,46.5h94a5,5,0,0,1,5,5v8a5,5,0,0,1,-5,5h-94a5,5,0,0,1,-5,-5v-8a5,5,0,0,1,5,-5z" stroke-width="3"/><g fill="black"><text text-rendering="inherit" font-size="12" dy=".8em" y="49.5" font-family="arial,helvetica,sans-serif" x="538.5">vuex-localstorage</text></g></g><g><path fill="rgba(0, 0, 0, .25)" stroke="none" d="M504,48h0a39,39,0,0,1,39,39v0a39,39,0,0,1,-39,39h0a39,39,0,0,1,-39,-39v0a39,39,0,0,1,39,-39z" display="none"/><g style="cursor: pointer;" display="none"><path fill="white" stroke="gray" d="M462.5,81.5A6,6,0,1,1,450.5,81.5A6,6,0,1,1,462.5,81.5"/><path fill="none" stroke="gray"/></g><path fill="none" stroke="none" d="M467.5,72.5h55a5,5,0,0,1,5,5v8a5,5,0,0,1,-5,5h-55a5,5,0,0,1,-5,-5v-8a5,5,0,0,1,5,-5z" stroke-width="3"/><g fill="black"><text text-rendering="inherit" font-size="12" dy=".8em" y="75.5" font-family="arial,helvetica,sans-serif" x="467.5">vue-router</text></g></g><g><path fill="rgba(0, 0, 0, .25)" stroke="none" d="M503,75h0a38,38,0,0,1,38,38v0a38,38,0,0,1,-38,38h0a38,38,0,0,1,-38,-38v0a38,38,0,0,1,38,-38z" display="none"/><g style="cursor: pointer;" display="none"><path fill="white" stroke="gray" d="M462.5,107.5A6,6,0,1,1,450.5,107.5A6,6,0,1,1,462.5,107.5"/><path fill="none" stroke="gray"/></g><path fill="none" stroke="none" d="M467.5,98.5h53a5,5,0,0,1,5,5v8a5,5,0,0,1,-5,5h-53a5,5,0,0,1,-5,-5v-8a5,5,0,0,1,5,-5z" stroke-width="3"/><g fill="black"><text text-rendering="inherit" font-size="12" dy=".8em" y="101.5" font-family="arial,helvetica,sans-serif" x="467.5">plato-i18n</text></g></g><g><path fill="rgba(0, 0, 0, .25)" stroke="none" d="M518,86h0a53,53,0,0,1,53,53v0a53,53,0,0,1,-53,53h0a53,53,0,0,1,-53,-53v0a53,53,0,0,1,53,-53z" display="none"/><g style="cursor: pointer;" display="none"><path fill="white" stroke="gray" d="M462.5,133.5A6,6,0,1,1,450.5,133.5A6,6,0,1,1,462.5,133.5"/><path fill="none" stroke="gray"/></g><path fill="none" stroke="none" d="M467.5,124.5h76a5,5,0,0,1,5,5v8a5,5,0,0,1,-5,5h-76a5,5,0,0,1,-5,-5v-8a5,5,0,0,1,5,-5z" stroke-width="3"/><g fill="black"><text text-rendering="inherit" font-size="12" dy=".8em" y="127.5" font-family="arial,helvetica,sans-serif" x="467.5">plato-validator</text></g></g><g><path fill="rgba(0, 0, 0, .25)" stroke="none" d="M469,128h0a49,49,0,0,1,49,49v0a49,49,0,0,1,-49,49h0a49,49,0,0,1,-49,-49v0a49,49,0,0,1,49,-49z" display="none"/><g style="cursor: pointer;"><path fill="white" stroke="gray" d="M417.5,171.5A6,6,0,1,1,405.5,171.5A6,6,0,1,1,417.5,171.5"/><path fill="none" stroke="gray" d="M407,171.5L416,171.5"/></g><path fill="none" stroke="none" d="M422.5,162.5h70a5,5,0,0,1,5,5v8a5,5,0,0,1,-5,5h-70a5,5,0,0,1,-5,-5v-8a5,5,0,0,1,5,-5z" stroke-width="3"/><g fill="black"><text text-rendering="inherit" font-size="12" dy=".8em" y="165.5" font-family="arial,helvetica,sans-serif" x="422.5">plato-request</text></g></g><g><path fill="rgba(0, 0, 0, .25)" stroke="none" d="M567,113h0a51,51,0,0,1,51,51v0a51,51,0,0,1,-51,51h0a51,51,0,0,1,-51,-51v0a51,51,0,0,1,51,-51z" display="none"/><g style="cursor: pointer;" display="none"><path fill="white" stroke="gray" d="M513.5,158.5A6,6,0,1,1,501.5,158.5A6,6,0,1,1,513.5,158.5"/><path fill="none" stroke="gray"/></g><path fill="none" stroke="none" d="M518.5,149.5h71a5,5,0,0,1,5,5v8a5,5,0,0,1,-5,5h-71a5,5,0,0,1,-5,-5v-8a5,5,0,0,1,5,-5z" stroke-width="3"/><g fill="black"><text text-rendering="inherit" font-size="12" dy=".8em" y="152.5" font-family="arial,helvetica,sans-serif" x="518.5">whatwg-fetch</text></g></g><g><path fill="rgba(0, 0, 0, .25)" stroke="none" d="M558,148h0a42,42,0,0,1,42,42v0a42,42,0,0,1,-42,42h0a42,42,0,0,1,-42,-42v0a42,42,0,0,1,42,-42z" display="none"/><g style="cursor: pointer;" display="none"><path fill="white" stroke="gray" d="M513.5,184.5A6,6,0,1,1,501.5,184.5A6,6,0,1,1,513.5,184.5"/><path fill="none" stroke="gray"/></g><path fill="none" stroke="none" d="M518.5,175.5h60a5,5,0,0,1,5,5v8a5,5,0,0,1,-5,5h-60a5,5,0,0,1,-5,-5v-8a5,5,0,0,1,5,-5z" stroke-width="3"/><g fill="black"><text text-rendering="inherit" font-size="12" dy=".8em" y="178.5" font-family="arial,helvetica,sans-serif" x="518.5">nd-promise</text></g></g><g><path fill="rgba(0, 0, 0, .25)" stroke="none" d="M353.5,255.5h36a10,10,0,0,1,10,10v6a10,10,0,0,1,-10,10h-36a10,10,0,0,1,-10,-10v-6a10,10,0,0,1,10,-10z" display="none"/><g style="cursor: pointer;"><path fill="white" stroke="gray" d="M333.5,263.5A6,6,0,1,1,321.5,263.5A6,6,0,1,1,333.5,263.5"/><path fill="none" stroke="gray" d="M323,263.5L332,263.5"/></g><path fill="rgb(238, 246, 238)" stroke="rgb(115, 191, 118)" d="M337.5,250.5h57a3,3,0,0,1,3,3v20a3,3,0,0,1,-3,3h-57a3,3,0,0,1,-3,-3v-20a3,3,0,0,1,3,-3z" stroke-width="1"/><g fill="black"><text text-rendering="inherit" font-size="14" dy=".8em" y="256.5" font-family="arial,helvetica,sans-serif" x="354.5">dev</text></g></g><g><path fill="rgba(0, 0, 0, .25)" stroke="none" d="M453,200h0a37,37,0,0,1,37,37v0a37,37,0,0,1,-37,37h0a37,37,0,0,1,-37,-37v0a37,37,0,0,1,37,-37z" display="none"/><g style="cursor: pointer;"><path fill="white" stroke="gray" d="M413.5,231.5A6,6,0,1,1,401.5,231.5A6,6,0,1,1,413.5,231.5"/><path fill="none" stroke="gray" d="M403,231.5L412,231.5"/></g><path fill="none" stroke="none" d="M418.5,222.5h47a5,5,0,0,1,5,5v8a5,5,0,0,1,-5,5h-47a5,5,0,0,1,-5,-5v-8a5,5,0,0,1,5,-5z" stroke-width="3"/><g fill="black"><text text-rendering="inherit" font-size="12" dy=".8em" y="225.5" font-family="arial,helvetica,sans-serif" x="418.5">webpack</text></g></g><g><path fill="rgba(0, 0, 0, .25)" stroke="none" d="M514.5,197h0a27,27,0,0,1,27,27v0a27,27,0,0,1,-27,27h0a27,27,0,0,1,-27,-27v0a27,27,0,0,1,27,-27z" display="none"/><g style="cursor: pointer;" display="none"><path fill="white" stroke="gray" d="M486.5,218.5A6,6,0,1,1,474.5,218.5A6,6,0,1,1,486.5,218.5"/><path fill="none" stroke="gray"/></g><path fill="none" stroke="none" d="M491.5,209.5h29a5,5,0,0,1,5,5v8a5,5,0,0,1,-5,5h-29a5,5,0,0,1,-5,-5v-8a5,5,0,0,1,5,-5z" stroke-width="3"/><g fill="black"><text text-rendering="inherit" font-size="12" dy=".8em" y="212.5" font-family="arial,helvetica,sans-serif" x="491.5">babel</text></g></g><g><path fill="rgba(0, 0, 0, .25)" stroke="none" d="M518,220h0a30,30,0,0,1,30,30v0a30,30,0,0,1,-30,30h0a30,30,0,0,1,-30,-30v0a30,30,0,0,1,30,-30z" display="none"/><g style="cursor: pointer;" display="none"><path fill="white" stroke="gray" d="M486.5,244.5A6,6,0,1,1,474.5,244.5A6,6,0,1,1,486.5,244.5"/><path fill="none" stroke="gray"/></g><path fill="none" stroke="none" d="M491.5,235.5h41a5,5,0,0,1,5,5v8a5,5,0,0,1,-5,5h-41a5,5,0,0,1,-5,-5v-8a5,5,0,0,1,5,-5z" stroke-width="3"/><g fill="black"><text text-rendering="inherit" font-size="12" dy=".8em" y="238.5" font-family="arial,helvetica,sans-serif" x="491.5">postcss</text></g></g><g><path fill="rgba(0, 0, 0, .25)" stroke="none" d="M434.5,255h0a21,21,0,0,1,21,21v0a21,21,0,0,1,-21,21h0a21,21,0,0,1,-21,-21v0a21,21,0,0,1,21,-21z" display="none"/><g style="cursor: pointer;" display="none"><path fill="white" stroke="gray" d="M413.5,270.5A6,6,0,1,1,401.5,270.5A6,6,0,1,1,413.5,270.5"/><path fill="none" stroke="gray"/></g><path fill="none" stroke="none" d="M418.5,261.5h19a5,5,0,0,1,5,5v8a5,5,0,0,1,-5,5h-19a5,5,0,0,1,-5,-5v-8a5,5,0,0,1,5,-5z" stroke-width="3"/><g fill="black"><text text-rendering="inherit" font-size="12" dy=".8em" y="264.5" font-family="arial,helvetica,sans-serif" x="418.5">koa</text></g></g><g><path fill="rgba(0, 0, 0, .25)" stroke="none" d="M453.5,264h0a38,38,0,0,1,38,38v0a38,38,0,0,1,-38,38h0a38,38,0,0,1,-38,-38v0a38,38,0,0,1,38,-38z" display="none"/><g style="cursor: pointer;" display="none"><path fill="white" stroke="gray" d="M413.5,296.5A6,6,0,1,1,401.5,296.5A6,6,0,1,1,413.5,296.5"/><path fill="none" stroke="gray"/></g><path fill="none" stroke="none" d="M418.5,287.5h50a5,5,0,0,1,5,5v8a5,5,0,0,1,-5,5h-50a5,5,0,0,1,-5,-5v-8a5,5,0,0,1,5,-5z" stroke-width="3"/><g fill="black"><text text-rendering="inherit" font-size="12" dy=".8em" y="290.5" font-family="arial,helvetica,sans-serif" x="418.5">nodemon</text></g></g><g><path fill="rgba(0, 0, 0, .25)" stroke="none" d="M179.5,126.5h36a10,10,0,0,1,10,10v6a10,10,0,0,1,-10,10h-36a10,10,0,0,1,-10,-10v-6a10,10,0,0,1,10,-10z" display="none"/><g style="cursor: pointer;"><path fill="white" stroke="gray" d="M236.5,134.5A6,6,0,1,1,224.5,134.5A6,6,0,1,1,236.5,134.5"/><path fill="none" stroke="gray" d="M226,134.5L235,134.5"/></g><path fill="rgb(238, 246, 238)" stroke="rgb(115, 191, 118)" d="M163.5,121.5h57a3,3,0,0,1,3,3v20a3,3,0,0,1,-3,3h-57a3,3,0,0,1,-3,-3v-20a3,3,0,0,1,3,-3z" stroke-width="1"/><g fill="black"><text text-rendering="inherit" font-size="14" dy=".8em" y="127.5" font-family="arial,helvetica,sans-serif" x="180.5">test</text></g></g><g><path fill="rgba(0, 0, 0, .25)" stroke="none" d="M191.5,251.5h22a10,10,0,0,1,10,10v6a10,10,0,0,1,-10,10h-22a10,10,0,0,1,-10,-10v-6a10,10,0,0,1,10,-10z" display="none"/><g style="cursor: pointer;"><path fill="white" stroke="gray" d="M236.5,259.5A6,6,0,1,1,224.5,259.5A6,6,0,1,1,236.5,259.5"/><path fill="none" stroke="gray" d="M226,259.5L235,259.5"/></g><path fill="rgb(238, 246, 238)" stroke="rgb(115, 191, 118)" d="M175.5,246.5h45a3,3,0,0,1,3,3v20a3,3,0,0,1,-3,3h-45a3,3,0,0,1,-3,-3v-20a3,3,0,0,1,3,-3z" stroke-width="1"/><g fill="black"><text text-rendering="inherit" font-size="14" dy=".8em" y="252.5" font-family="arial,helvetica,sans-serif" x="192.5">ui</text></g></g><g><path fill="rgba(0, 0, 0, .25)" stroke="none" d="M134.5,180h0a33,33,0,0,1,33,33v0a33,33,0,0,1,-33,33h0a33,33,0,0,1,-33,-33v0a33,33,0,0,1,33,-33z" display="none"/><g style="cursor: pointer;" display="none"><path fill="white" stroke="gray" d="M168.5,207.5A6,6,0,1,1,156.5,207.5A6,6,0,1,1,168.5,207.5"/><path fill="none" stroke="gray"/></g><path fill="none" stroke="none" d="M104.5,198.5h47a5,5,0,0,1,5,5v8a5,5,0,0,1,-5,5h-47a5,5,0,0,1,-5,-5v-8a5,5,0,0,1,5,-5z" stroke-width="3"/><g fill="black"><text text-rendering="inherit" font-size="12" dy=".8em" y="201.5" font-family="arial,helvetica,sans-serif" x="104.5">progress</text></g></g><g><path fill="rgba(0, 0, 0, .25)" stroke="none" d="M145,215h0a24,24,0,0,1,24,24v0a24,24,0,0,1,-24,24h0a24,24,0,0,1,-24,-24v0a24,24,0,0,1,24,-24z" display="none"/><g style="cursor: pointer;" display="none"><path fill="white" stroke="gray" d="M168.5,233.5A6,6,0,1,1,156.5,233.5A6,6,0,1,1,168.5,233.5"/><path fill="none" stroke="gray"/></g><path fill="none" stroke="none" d="M125.5,224.5h26a5,5,0,0,1,5,5v8a5,5,0,0,1,-5,5h-26a5,5,0,0,1,-5,-5v-8a5,5,0,0,1,5,-5z" stroke-width="3"/><g fill="black"><text text-rendering="inherit" font-size="12" dy=".8em" y="227.5" font-family="arial,helvetica,sans-serif" x="125.5">toast</text></g></g><g><path fill="rgba(0, 0, 0, .25)" stroke="none" d="M143,237h0a28,28,0,0,1,28,28v0a28,28,0,0,1,-28,28h0a28,28,0,0,1,-28,-28v0a28,28,0,0,1,28,-28z" display="none"/><g style="cursor: pointer;" display="none"><path fill="white" stroke="gray" d="M168.5,259.5A6,6,0,1,1,156.5,259.5A6,6,0,1,1,168.5,259.5"/><path fill="none" stroke="gray"/></g><path fill="none" stroke="none" d="M118.5,250.5h33a5,5,0,0,1,5,5v8a5,5,0,0,1,-5,5h-33a5,5,0,0,1,-5,-5v-8a5,5,0,0,1,5,-5z" stroke-width="3"/><g fill="black"><text text-rendering="inherit" font-size="12" dy=".8em" y="253.5" font-family="arial,helvetica,sans-serif" x="118.5">modal</text></g></g><g><path fill="rgba(0, 0, 0, .25)" stroke="none" d="M148.5,271h0a20,20,0,0,1,20,20v0a20,20,0,0,1,-20,20h0a20,20,0,0,1,-20,-20v0a20,20,0,0,1,20,-20z" display="none"/><g style="cursor: pointer;" display="none"><path fill="white" stroke="gray" d="M168.5,285.5A6,6,0,1,1,156.5,285.5A6,6,0,1,1,168.5,285.5"/><path fill="none" stroke="gray"/></g><path fill="none" stroke="none" d="M133.5,276.5h18a5,5,0,0,1,5,5v8a5,5,0,0,1,-5,5h-18a5,5,0,0,1,-5,-5v-8a5,5,0,0,1,5,-5z" stroke-width="3"/><g fill="black"><text text-rendering="inherit" font-size="12" dy=".8em" y="279.5" font-family="arial,helvetica,sans-serif" x="133.5">cell</text></g></g><g><path fill="rgba(0, 0, 0, .25)" stroke="none" d="M151,301h0a16,16,0,0,1,16,16v0a16,16,0,0,1,-16,16h0a16,16,0,0,1,-16,-16v0a16,16,0,0,1,16,-16z" display="none"/><g style="cursor: pointer;" display="none"><path fill="white" stroke="gray" d="M168.5,311.5A6,6,0,1,1,156.5,311.5A6,6,0,1,1,168.5,311.5"/><path fill="none" stroke="gray"/></g><path fill="none" stroke="none" d="M141.5,302.5h10a5,5,0,0,1,5,5v8a5,5,0,0,1,-5,5h-10a5,5,0,0,1,-5,-5v-8a5,5,0,0,1,5,-5z" stroke-width="3"/><g fill="black"><text text-rendering="inherit" font-size="12" dy=".8em" y="305.5" font-family="arial,helvetica,sans-serif" x="141.5">...</text></g></g><g><path fill="rgba(0, 0, 0, .25)" stroke="none" d="M71.5,19h0a30,30,0,0,1,30,30v0a30,30,0,0,1,-30,30h0a30,30,0,0,1,-30,-30v0a30,30,0,0,1,30,-30z" display="none"/><g style="cursor: pointer;" display="none"><path fill="white" stroke="gray" d="M97.5,43.5A6,6,0,1,1,85.5,43.5A6,6,0,1,1,97.5,43.5"/><path fill="none" stroke="gray"/></g><path fill="none" stroke="none" d="M44.5,34.5h36a5,5,0,0,1,5,5v8a5,5,0,0,1,-5,5h-36a5,5,0,0,1,-5,-5v-8a5,5,0,0,1,5,-5z" stroke-width="3"/><g fill="black"><text text-rendering="inherit" font-size="12" dy=".8em" y="37.5" font-family="arial,helvetica,sans-serif" x="44.5">mocha</text></g></g><g><path fill="rgba(0, 0, 0, .25)" stroke="none" d="M76.5,53h0a22,22,0,0,1,22,22v0a22,22,0,0,1,-22,22h0a22,22,0,0,1,-22,-22v0a22,22,0,0,1,22,-22z" display="none"/><g style="cursor: pointer;" display="none"><path fill="white" stroke="gray" d="M97.5,69.5A6,6,0,1,1,85.5,69.5A6,6,0,1,1,97.5,69.5"/><path fill="none" stroke="gray"/></g><path fill="none" stroke="none" d="M58.5,60.5h22a5,5,0,0,1,5,5v8a5,5,0,0,1,-5,5h-22a5,5,0,0,1,-5,-5v-8a5,5,0,0,1,5,-5z" stroke-width="3"/><g fill="black"><text text-rendering="inherit" font-size="12" dy=".8em" y="63.5" font-family="arial,helvetica,sans-serif" x="58.5">chai</text></g></g><g><path fill="rgba(0, 0, 0, .25)" stroke="none" d="M71.5,77h0a24,24,0,0,1,24,24v0a24,24,0,0,1,-24,24h0a24,24,0,0,1,-24,-24v0a24,24,0,0,1,24,-24z" display="none"/><g style="cursor: pointer;" display="none"><path fill="white" stroke="gray" d="M97.5,95.5A6,6,0,1,1,85.5,95.5A6,6,0,1,1,97.5,95.5"/><path fill="none" stroke="gray"/></g><path fill="none" stroke="none" d="M51.5,86.5h29a5,5,0,0,1,5,5v8a5,5,0,0,1,-5,5h-29a5,5,0,0,1,-5,-5v-8a5,5,0,0,1,5,-5z" stroke-width="3"/><g fill="black"><text text-rendering="inherit" font-size="12" dy=".8em" y="89.5" font-family="arial,helvetica,sans-serif" x="51.5">sinon</text></g></g><g><path fill="rgba(0, 0, 0, .25)" stroke="none" d="M62.5,87h0a40,40,0,0,1,40,40v0a40,40,0,0,1,-40,40h0a40,40,0,0,1,-40,-40v0a40,40,0,0,1,40,-40z" display="none"/><g style="cursor: pointer;" display="none"><path fill="white" stroke="gray" d="M97.5,121.5A6,6,0,1,1,85.5,121.5A6,6,0,1,1,97.5,121.5"/><path fill="none" stroke="gray"/></g><path fill="none" stroke="none" d="M25.5,112.5h55a5,5,0,0,1,5,5v8a5,5,0,0,1,-5,5h-55a5,5,0,0,1,-5,-5v-8a5,5,0,0,1,5,-5z" stroke-width="3"/><g fill="black"><text text-rendering="inherit" font-size="12" dy=".8em" y="115.5" font-family="arial,helvetica,sans-serif" x="25.5">phantomjs</text></g></g><g><path fill="rgba(0, 0, 0, .25)" stroke="none" d="M67,115h0a38,38,0,0,1,38,38v0a38,38,0,0,1,-38,38h0a38,38,0,0,1,-38,-38v0a38,38,0,0,1,38,-38z" display="none"/><g style="cursor: pointer;" display="none"><path fill="white" stroke="gray" d="M97.5,147.5A6,6,0,1,1,85.5,147.5A6,6,0,1,1,97.5,147.5"/><path fill="none" stroke="gray"/></g><path fill="none" stroke="none" d="M31.5,138.5h49a5,5,0,0,1,5,5v8a5,5,0,0,1,-5,5h-49a5,5,0,0,1,-5,-5v-8a5,5,0,0,1,5,-5z" stroke-width="3"/><g fill="black"><text text-rendering="inherit" font-size="12" dy=".8em" y="141.5" font-family="arial,helvetica,sans-serif" x="31.5">coverage</text></g></g><g><path fill="rgba(0, 0, 0, .25)" stroke="none" d="M130.5,73h0a28,28,0,0,1,28,28v0a28,28,0,0,1,-28,28h0a28,28,0,0,1,-28,-28v0a28,28,0,0,1,28,-28z" display="none"/><g style="cursor: pointer;"><path fill="white" stroke="gray" d="M156.5,95.5A6,6,0,1,1,144.5,95.5A6,6,0,1,1,156.5,95.5"/><path fill="none" stroke="gray" d="M146,95.5L155,95.5"/></g><path fill="none" stroke="none" d="M106.5,86.5h33a5,5,0,0,1,5,5v8a5,5,0,0,1,-5,5h-33a5,5,0,0,1,-5,-5v-8a5,5,0,0,1,5,-5z" stroke-width="3"/><g fill="black"><text text-rendering="inherit" font-size="12" dy=".8em" y="89.5" font-family="arial,helvetica,sans-serif" x="106.5">karma</text></g></g><g><path fill="rgba(0, 0, 0, .25)" stroke="none" d="M131,155h0a24,24,0,0,1,24,24v0a24,24,0,0,1,-24,24h0a24,24,0,0,1,-24,-24v0a24,24,0,0,1,24,-24z" display="none"/><g style="cursor: pointer;" display="none"><path fill="white" stroke="gray" d="M156.5,173.5A6,6,0,1,1,144.5,173.5A6,6,0,1,1,156.5,173.5"/><path fill="none" stroke="gray"/></g><path fill="none" stroke="none" d="M111.5,164.5h28a5,5,0,0,1,5,5v8a5,5,0,0,1,-5,5h-28a5,5,0,0,1,-5,-5v-8a5,5,0,0,1,5,-5z" stroke-width="3"/><g fill="black"><text text-rendering="inherit" font-size="12" dy=".8em" y="167.5" font-family="arial,helvetica,sans-serif" x="111.5">eslint</text></g></g></g></g></svg>
