<svg id="kity_svg_6" xmlns="http://www.w3.org/2000/svg" xmlns:xlink="http://www.w3.org/1999/xlink" version="1.1" width="1085" height="663" viewBox="0 0 1085 663"><g id="kity_g_8"><g id="minder1" text-rendering="optimize-speed"><g id="minder_connect_group1"><path id="kity_path_31" fill="none" stroke="rgb(115, 161, 191)" stroke-width="1" d="M471,364.5A166.5,132,0,0,1,637.5,232.5"></path><path id="kity_path_33" fill="none" stroke="rgb(115, 161, 191)" stroke-width="1" d="M711.5,232.5C726.5,232.5,726.5,162.5,741.5,162.5L793.5,162.5"></path><path id="kity_path_35" fill="none" stroke="rgb(115, 161, 191)" stroke-width="1" d="M793.5,162.5C808.5,162.5,808.5,71.5,823.5,71.5L901.5,71.5"></path><path id="kity_path_37" fill="none" stroke="rgb(115, 161, 191)" stroke-width="1" d="M901.5,71.5C916.5,71.5,916.5,45.5,931.5,45.5L1038.5,45.5"></path><path id="kity_path_39" fill="none" stroke="rgb(115, 161, 191)" stroke-width="1" d="M901.5,71.5C916.5,71.5,916.5,97.5,931.5,97.5L1065.5,97.5"></path><path id="kity_path_41" fill="none" stroke="rgb(115, 161, 191)" stroke-width="1" d="M793.5,162.5C808.5,162.5,808.5,149.5,823.5,149.5L913.5,149.5"></path><path id="kity_path_43" fill="none" stroke="rgb(115, 161, 191)" stroke-width="1" d="M793.5,162.5C808.5,162.5,808.5,201.5,823.5,201.5L911.5,201.5"></path><path id="kity_path_45" fill="none" stroke="rgb(115, 161, 191)" stroke-width="1" d="M793.5,162.5C808.5,162.5,808.5,253.5,823.5,253.5L939.5,253.5"></path><path id="kity_path_47" fill="none" stroke="rgb(115, 161, 191)" stroke-width="1" d="M711.5,232.5C726.5,232.5,726.5,331.5,741.5,331.5L849.5,331.5"></path><path id="kity_path_49" fill="none" stroke="rgb(115, 161, 191)" stroke-width="1" d="M849.5,331.5C864.5,331.5,864.5,305.5,879.5,305.5L991.5,305.5"></path><path id="kity_path_51" fill="none" stroke="rgb(115, 161, 191)" stroke-width="1" d="M849.5,331.5C864.5,331.5,864.5,357.5,879.5,357.5L974.5,357.5"></path><path id="kity_path_53" fill="none" stroke="rgb(115, 161, 191)" stroke-width="1" d="M471,364.5A166.5,132,0,0,0,637.5,496.5"></path><path id="kity_path_55" fill="none" stroke="rgb(115, 161, 191)" stroke-width="1" d="M705.5,496.5C720.5,496.5,720.5,445.5,735.5,445.5L821.5,445.5"></path><path id="kity_path_57" fill="none" stroke="rgb(115, 161, 191)" stroke-width="1" d="M821.5,445.5C836.5,445.5,836.5,419.5,851.5,419.5L916.5,419.5"></path><path id="kity_path_59" fill="none" stroke="rgb(115, 161, 191)" stroke-width="1" d="M821.5,445.5C836.5,445.5,836.5,471.5,851.5,471.5L923.5,471.5"></path><path id="kity_path_61" fill="none" stroke="rgb(115, 161, 191)" stroke-width="1" d="M705.5,496.5C720.5,496.5,720.5,523.5,735.5,523.5L787.5,523.5"></path><path id="kity_path_63" fill="none" stroke="rgb(115, 161, 191)" stroke-width="1" d="M705.5,496.5C720.5,496.5,720.5,575.5,735.5,575.5L823.5,575.5"></path><path id="kity_path_65" fill="none" stroke="rgb(115, 161, 191)" stroke-width="1" d="M471,364.5A166.5,135,0,0,0,304.5,229.5"></path><path id="kity_path_67" fill="none" stroke="rgb(115, 161, 191)" stroke-width="1" d="M238.5,229.5C223.5,229.5,223.5,165.5,208.5,165.5L141.5,165.5"></path><path id="kity_path_69" fill="none" stroke="rgb(115, 161, 191)" stroke-width="1" d="M141.5,165.5C126.5,165.5,126.5,61.5,111.5,61.5L39.5,61.5"></path><path id="kity_path_71" fill="none" stroke="rgb(115, 161, 191)" stroke-width="1" d="M141.5,165.5C126.5,165.5,126.5,113.5,111.5,113.5L55.5,113.5"></path><path id="kity_path_73" fill="none" stroke="rgb(115, 161, 191)" stroke-width="1" d="M141.5,165.5C126.5,165.5,126.5,165.5,111.5,165.5L51.5,165.5"></path><path id="kity_path_75" fill="none" stroke="rgb(115, 161, 191)" stroke-width="1" d="M141.5,165.5C126.5,165.5,126.5,217.5,111.5,217.5L20.5,217.5"></path><path id="kity_path_77" fill="none" stroke="rgb(115, 161, 191)" stroke-width="1" d="M141.5,165.5C126.5,165.5,126.5,269.5,111.5,269.5L23.5,269.5"></path><path id="kity_path_79" fill="none" stroke="rgb(115, 161, 191)" stroke-width="1" d="M238.5,229.5C223.5,229.5,223.5,321.5,208.5,321.5L149.5,321.5"></path><path id="kity_path_81" fill="none" stroke="rgb(115, 161, 191)" stroke-width="1" d="M471,364.5A166.5,135,0,0,1,304.5,499.5"></path><path id="kity_path_83" fill="none" stroke="rgb(115, 161, 191)" stroke-width="1" d="M251.5,499.5C236.5,499.5,236.5,383.5,221.5,383.5L143.5,383.5"></path><path id="kity_path_85" fill="none" stroke="rgb(115, 161, 191)" stroke-width="1" d="M251.5,499.5C236.5,499.5,236.5,435.5,221.5,435.5L162.5,435.5"></path><path id="kity_path_87" fill="none" stroke="rgb(115, 161, 191)" stroke-width="1" d="M251.5,499.5C236.5,499.5,236.5,487.5,221.5,487.5L153.5,487.5"></path><path id="kity_path_89" fill="none" stroke="rgb(115, 161, 191)" stroke-width="1" d="M251.5,499.5C236.5,499.5,236.5,539.5,221.5,539.5L171.5,539.5"></path><path id="kity_path_91" fill="none" stroke="rgb(115, 161, 191)" stroke-width="1" d="M251.5,499.5C236.5,499.5,236.5,591.5,221.5,591.5L165.5,591.5"></path><path id="kity_path_279" fill="none" stroke="rgb(115, 161, 191)" stroke-width="1" d="M251.5,499.5C236.5,499.5,236.5,643.5,221.5,643.5L181.5,643.5"></path></g><g id="minder_node1"><path id="node_outline1" fill="rgb(115, 161, 191)" stroke="rgb(115, 161, 191)" d="M427.5,344.5h87a5,5,0,0,1,5,5v30a5,5,0,0,1,-5,5h-87a5,5,0,0,1,-5,-5v-30a5,5,0,0,1,5,-5z" stroke-width="3"></path><g id="node_text1" fill="white"><text id="kity_text_22" text-rendering="inherit" font-size="16" dy=".8em" y="356.5" x="446.5">PLATO</text></g></g><g id="kity_g_12"><path id="kity_path_13" fill="none" stroke="none" d="M446.5,364.5h0v0h0z"></path></g><g id="kity_g_14"><path id="kity_path_15" fill="none" stroke="none" d="M446.5,364.5h0v0h0z"></path><path id="kity_path_16" fill="none" stroke="none"></path></g><g id="minder_node2"><g id="node_expander11" style="cursor: pointer;"><path id="kity_path_216" fill="white" stroke="gray" d="M638.5,232.5A6,6,0,1,1,626.5,232.5A6,6,0,1,1,638.5,232.5"></path><path id="kity_path_217" fill="none" stroke="gray" d="M628,232.5L637,232.5"></path></g><path id="node_outline12" fill="rgb(238, 243, 246)" stroke="rgb(115, 161, 191)" d="M642.5,219.5h66a3,3,0,0,1,3,3v20a3,3,0,0,1,-3,3h-66a3,3,0,0,1,-3,-3v-20a3,3,0,0,1,3,-3z" stroke-width="1"></path><g id="node_text12" fill="black"><text id="kity_text_113" text-rendering="inherit" font-size="14" dy=".8em" y="225.5" x="659.5">core</text></g></g><g id="minder_node3"><g id="node_expander7" style="cursor: pointer;"><path id="kity_path_204" fill="white" stroke="gray" d="M751.5,148.5A6,6,0,1,1,739.5,148.5A6,6,0,1,1,751.5,148.5"></path><path id="kity_path_205" fill="none" stroke="gray" d="M741,148.5L750,148.5"></path></g><path id="node_outline8" fill="none" stroke="none" d="M756.5,137.5h32a5,5,0,0,1,5,5v12a5,5,0,0,1,-5,5h-32a5,5,0,0,1,-5,-5v-12a5,5,0,0,1,5,-5z"></path><g id="node_text8" fill="black"><text id="kity_text_105" text-rendering="inherit" font-size="12" dy=".8em" y="142.5" x="761.5">vue</text></g></g><g id="minder_node4"><g id="node_expander3" style="cursor: pointer;"><path id="kity_path_192" fill="white" stroke="gray" d="M833.5,57.5A6,6,0,1,1,821.5,57.5A6,6,0,1,1,833.5,57.5"></path><path id="kity_path_193" fill="none" stroke="gray" d="M823,57.5L832,57.5"></path></g><path id="node_outline4" fill="none" stroke="none" d="M838.5,46.5h58a5,5,0,0,1,5,5v12a5,5,0,0,1,-5,5h-58a5,5,0,0,1,-5,-5v-12a5,5,0,0,1,5,-5z"></path><g id="node_text4" fill="black"><text id="kity_text_97" text-rendering="inherit" font-size="12" dy=".8em" y="51.5" x="843.5">vuex-fsa</text></g></g><g id="minder_node5"><g id="node_expander1" style="cursor: pointer;" display="none"><path id="kity_path_186" fill="white" stroke="gray" d="M941.5,31.5A6,6,0,1,1,929.5,31.5A6,6,0,1,1,941.5,31.5"></path><path id="kity_path_187" fill="none" stroke="gray"></path></g><path id="node_outline2" fill="none" stroke="none" d="M946.5,20.5h87a5,5,0,0,1,5,5v12a5,5,0,0,1,-5,5h-87a5,5,0,0,1,-5,-5v-12a5,5,0,0,1,5,-5z"></path><g id="node_text2" fill="black"><text id="kity_text_93" text-rendering="inherit" font-size="12" dy=".8em" y="25.5" x="951.5">vuex-promise</text></g></g><g id="minder_node6"><g id="node_expander2" style="cursor: pointer;" display="none"><path id="kity_path_189" fill="white" stroke="gray" d="M941.5,83.5A6,6,0,1,1,929.5,83.5A6,6,0,1,1,941.5,83.5"></path><path id="kity_path_190" fill="none" stroke="gray"></path></g><path id="node_outline3" fill="none" stroke="none" d="M946.5,72.5h114a5,5,0,0,1,5,5v12a5,5,0,0,1,-5,5h-114a5,5,0,0,1,-5,-5v-12a5,5,0,0,1,5,-5z"></path><g id="node_text3" fill="black"><text id="kity_text_95" text-rendering="inherit" font-size="12" dy=".8em" y="77.5" x="951.5">vuex-localstorage</text></g></g><g id="minder_node7"><g id="node_expander4" style="cursor: pointer;" display="none"><path id="kity_path_195" fill="white" stroke="gray" d="M833.5,135.5A6,6,0,1,1,821.5,135.5A6,6,0,1,1,833.5,135.5"></path><path id="kity_path_196" fill="none" stroke="gray"></path></g><path id="node_outline5" fill="none" stroke="none" d="M838.5,124.5h70a5,5,0,0,1,5,5v12a5,5,0,0,1,-5,5h-70a5,5,0,0,1,-5,-5v-12a5,5,0,0,1,5,-5z"></path><g id="node_text5" fill="black"><text id="kity_text_99" text-rendering="inherit" font-size="12" dy=".8em" y="129.5" x="843.5">vue-router</text></g></g><g id="minder_node8"><g id="node_expander5" style="cursor: pointer;" display="none"><path id="kity_path_198" fill="white" stroke="gray" d="M833.5,187.5A6,6,0,1,1,821.5,187.5A6,6,0,1,1,833.5,187.5"></path><path id="kity_path_199" fill="none" stroke="gray"></path></g><path id="node_outline6" fill="none" stroke="none" d="M838.5,176.5h68a5,5,0,0,1,5,5v12a5,5,0,0,1,-5,5h-68a5,5,0,0,1,-5,-5v-12a5,5,0,0,1,5,-5z"></path><g id="node_text6" fill="black"><text id="kity_text_101" text-rendering="inherit" font-size="12" dy=".8em" y="181.5" x="843.5">plato-i18n</text></g></g><g id="minder_node9"><g id="node_expander6" style="cursor: pointer;" display="none"><path id="kity_path_201" fill="white" stroke="gray" d="M833.5,239.5A6,6,0,1,1,821.5,239.5A6,6,0,1,1,833.5,239.5"></path><path id="kity_path_202" fill="none" stroke="gray"></path></g><path id="node_outline7" fill="none" stroke="none" d="M838.5,228.5h96a5,5,0,0,1,5,5v12a5,5,0,0,1,-5,5h-96a5,5,0,0,1,-5,-5v-12a5,5,0,0,1,5,-5z"></path><g id="node_text7" fill="black"><text id="kity_text_103" text-rendering="inherit" font-size="12" dy=".8em" y="233.5" x="843.5">plato-validator</text></g></g><g id="minder_node10"><g id="node_expander10" style="cursor: pointer;"><path id="kity_path_213" fill="white" stroke="gray" d="M751.5,317.5A6,6,0,1,1,739.5,317.5A6,6,0,1,1,751.5,317.5"></path><path id="kity_path_214" fill="none" stroke="gray" d="M741,317.5L750,317.5"></path></g><path id="node_outline11" fill="none" stroke="none" d="M756.5,306.5h88a5,5,0,0,1,5,5v12a5,5,0,0,1,-5,5h-88a5,5,0,0,1,-5,-5v-12a5,5,0,0,1,5,-5z"></path><g id="node_text11" fill="black"><text id="kity_text_111" text-rendering="inherit" font-size="12" dy=".8em" y="311.5" x="761.5">plato-request</text></g></g><g id="minder_node11"><g id="node_expander8" style="cursor: pointer;" display="none"><path id="kity_path_207" fill="white" stroke="gray" d="M889.5,291.5A6,6,0,1,1,877.5,291.5A6,6,0,1,1,889.5,291.5"></path><path id="kity_path_208" fill="none" stroke="gray"></path></g><path id="node_outline9" fill="none" stroke="none" d="M894.5,280.5h92a5,5,0,0,1,5,5v12a5,5,0,0,1,-5,5h-92a5,5,0,0,1,-5,-5v-12a5,5,0,0,1,5,-5z"></path><g id="node_text9" fill="black"><text id="kity_text_107" text-rendering="inherit" font-size="12" dy=".8em" y="285.5" x="899.5">whatwg-fetch</text></g></g><g id="minder_node12"><g id="node_expander9" style="cursor: pointer;" display="none"><path id="kity_path_210" fill="white" stroke="gray" d="M889.5,343.5A6,6,0,1,1,877.5,343.5A6,6,0,1,1,889.5,343.5"></path><path id="kity_path_211" fill="none" stroke="gray"></path></g><path id="node_outline10" fill="none" stroke="none" d="M894.5,332.5h75a5,5,0,0,1,5,5v12a5,5,0,0,1,-5,5h-75a5,5,0,0,1,-5,-5v-12a5,5,0,0,1,5,-5z"></path><g id="node_text10" fill="black"><text id="kity_text_109" text-rendering="inherit" font-size="12" dy=".8em" y="337.5" x="899.5">nd-promise</text></g></g><g id="minder_node13"><g id="node_expander17" style="cursor: pointer;"><path id="kity_path_234" fill="white" stroke="gray" d="M638.5,496.5A6,6,0,1,1,626.5,496.5A6,6,0,1,1,638.5,496.5"></path><path id="kity_path_235" fill="none" stroke="gray" d="M628,496.5L637,496.5"></path></g><path id="node_outline18" fill="rgb(238, 243, 246)" stroke="rgb(115, 161, 191)" d="M642.5,483.5h60a3,3,0,0,1,3,3v20a3,3,0,0,1,-3,3h-60a3,3,0,0,1,-3,-3v-20a3,3,0,0,1,3,-3z" stroke-width="1"></path><g id="node_text18" fill="black"><text id="kity_text_125" text-rendering="inherit" font-size="14" dy=".8em" y="489.5" x="659.5">dev</text></g></g><g id="minder_node14"><g id="node_expander14" style="cursor: pointer;"><path id="kity_path_225" fill="white" stroke="gray" d="M745.5,431.5A6,6,0,1,1,733.5,431.5A6,6,0,1,1,745.5,431.5"></path><path id="kity_path_226" fill="none" stroke="gray" d="M735,431.5L744,431.5"></path></g><path id="node_outline15" fill="none" stroke="none" d="M750.5,420.5h66a5,5,0,0,1,5,5v12a5,5,0,0,1,-5,5h-66a5,5,0,0,1,-5,-5v-12a5,5,0,0,1,5,-5z"></path><g id="node_text15" fill="black"><text id="kity_text_119" text-rendering="inherit" font-size="12" dy=".8em" y="425.5" x="755.5">webpack</text></g></g><g id="minder_node15"><g id="node_expander12" style="cursor: pointer;" display="none"><path id="kity_path_219" fill="white" stroke="gray" d="M861.5,405.5A6,6,0,1,1,849.5,405.5A6,6,0,1,1,861.5,405.5"></path><path id="kity_path_220" fill="none" stroke="gray"></path></g><path id="node_outline13" fill="none" stroke="none" d="M866.5,394.5h45a5,5,0,0,1,5,5v12a5,5,0,0,1,-5,5h-45a5,5,0,0,1,-5,-5v-12a5,5,0,0,1,5,-5z"></path><g id="node_text13" fill="black"><text id="kity_text_115" text-rendering="inherit" font-size="12" dy=".8em" y="399.5" x="871.5">babel</text></g></g><g id="minder_node16"><g id="node_expander13" style="cursor: pointer;" display="none"><path id="kity_path_222" fill="white" stroke="gray" d="M861.5,457.5A6,6,0,1,1,849.5,457.5A6,6,0,1,1,861.5,457.5"></path><path id="kity_path_223" fill="none" stroke="gray"></path></g><path id="node_outline14" fill="none" stroke="none" d="M866.5,446.5h52a5,5,0,0,1,5,5v12a5,5,0,0,1,-5,5h-52a5,5,0,0,1,-5,-5v-12a5,5,0,0,1,5,-5z"></path><g id="node_text14" fill="black"><text id="kity_text_117" text-rendering="inherit" font-size="12" dy=".8em" y="451.5" x="871.5">postcss</text></g></g><g id="minder_node17"><g id="node_expander15" style="cursor: pointer;" display="none"><path id="kity_path_228" fill="white" stroke="gray" d="M745.5,509.5A6,6,0,1,1,733.5,509.5A6,6,0,1,1,745.5,509.5"></path><path id="kity_path_229" fill="none" stroke="gray"></path></g><path id="node_outline16" fill="none" stroke="none" d="M750.5,498.5h32a5,5,0,0,1,5,5v12a5,5,0,0,1,-5,5h-32a5,5,0,0,1,-5,-5v-12a5,5,0,0,1,5,-5z"></path><g id="node_text16" fill="black"><text id="kity_text_121" text-rendering="inherit" font-size="12" dy=".8em" y="503.5" x="755.5">koa</text></g></g><g id="minder_node18"><g id="node_expander16" style="cursor: pointer;" display="none"><path id="kity_path_231" fill="white" stroke="gray" d="M745.5,561.5A6,6,0,1,1,733.5,561.5A6,6,0,1,1,745.5,561.5"></path><path id="kity_path_232" fill="none" stroke="gray"></path></g><path id="node_outline17" fill="none" stroke="none" d="M750.5,550.5h68a5,5,0,0,1,5,5v12a5,5,0,0,1,-5,5h-68a5,5,0,0,1,-5,-5v-12a5,5,0,0,1,5,-5z"></path><g id="node_text17" fill="black"><text id="kity_text_123" text-rendering="inherit" font-size="12" dy=".8em" y="555.5" x="755.5">nodemon</text></g></g><g id="minder_node19"><g id="node_expander25" style="cursor: pointer;"><path id="kity_path_258" fill="white" stroke="gray" d="M315.5,229.5A6,6,0,1,1,303.5,229.5A6,6,0,1,1,315.5,229.5"></path><path id="kity_path_259" fill="none" stroke="gray" d="M305,229.5L314,229.5"></path></g><path id="node_outline26" fill="rgb(238, 243, 246)" stroke="rgb(115, 161, 191)" d="M241.5,216.5h58a3,3,0,0,1,3,3v20a3,3,0,0,1,-3,3h-58a3,3,0,0,1,-3,-3v-20a3,3,0,0,1,3,-3z" stroke-width="1"></path><g id="node_text26" fill="black"><text id="kity_text_141" text-rendering="inherit" font-size="14" dy=".8em" y="222.5" x="258.5">test</text></g></g><g id="minder_node20"><g id="node_expander23" style="cursor: pointer;"><path id="kity_path_252" fill="white" stroke="gray" d="M210.5,151.5A6,6,0,1,1,198.5,151.5A6,6,0,1,1,210.5,151.5"></path><path id="kity_path_253" fill="none" stroke="gray" d="M200,151.5L209,151.5"></path></g><path id="node_outline24" fill="none" stroke="none" d="M146.5,140.5h47a5,5,0,0,1,5,5v12a5,5,0,0,1,-5,5h-47a5,5,0,0,1,-5,-5v-12a5,5,0,0,1,5,-5z"></path><g id="node_text24" fill="black"><text id="kity_text_137" text-rendering="inherit" font-size="12" dy=".8em" y="145.5" x="151.5">karma</text></g></g><g id="minder_node21"><g id="node_expander18" style="cursor: pointer;" display="none"><path id="kity_path_237" fill="white" stroke="gray" d="M113.5,47.5A6,6,0,1,1,101.5,47.5A6,6,0,1,1,113.5,47.5"></path><path id="kity_path_238" fill="none" stroke="gray"></path></g><path id="node_outline19" fill="none" stroke="none" d="M44.5,36.5h52a5,5,0,0,1,5,5v12a5,5,0,0,1,-5,5h-52a5,5,0,0,1,-5,-5v-12a5,5,0,0,1,5,-5z"></path><g id="node_text19" fill="black"><text id="kity_text_127" text-rendering="inherit" font-size="12" dy=".8em" y="41.5" x="49.5">mocha</text></g></g><g id="minder_node22"><g id="node_expander19" style="cursor: pointer;" display="none"><path id="kity_path_240" fill="white" stroke="gray" d="M113.5,99.5A6,6,0,1,1,101.5,99.5A6,6,0,1,1,113.5,99.5"></path><path id="kity_path_241" fill="none" stroke="gray"></path></g><path id="node_outline20" fill="none" stroke="none" d="M60.5,88.5h36a5,5,0,0,1,5,5v12a5,5,0,0,1,-5,5h-36a5,5,0,0,1,-5,-5v-12a5,5,0,0,1,5,-5z"></path><g id="node_text20" fill="black"><text id="kity_text_129" text-rendering="inherit" font-size="12" dy=".8em" y="93.5" x="65.5">chai</text></g></g><g id="minder_node23"><g id="node_expander20" style="cursor: pointer;" display="none"><path id="kity_path_243" fill="white" stroke="gray" d="M113.5,151.5A6,6,0,1,1,101.5,151.5A6,6,0,1,1,113.5,151.5"></path><path id="kity_path_244" fill="none" stroke="gray"></path></g><path id="node_outline21" fill="none" stroke="none" d="M56.5,140.5h40a5,5,0,0,1,5,5v12a5,5,0,0,1,-5,5h-40a5,5,0,0,1,-5,-5v-12a5,5,0,0,1,5,-5z"></path><g id="node_text21" fill="black"><text id="kity_text_131" text-rendering="inherit" font-size="12" dy=".8em" y="145.5" x="61.5">sinon</text></g></g><g id="minder_node24"><g id="node_expander21" style="cursor: pointer;" display="none"><path id="kity_path_246" fill="white" stroke="gray" d="M113.5,203.5A6,6,0,1,1,101.5,203.5A6,6,0,1,1,113.5,203.5"></path><path id="kity_path_247" fill="none" stroke="gray"></path></g><path id="node_outline22" fill="none" stroke="none" d="M25.5,192.5h71a5,5,0,0,1,5,5v12a5,5,0,0,1,-5,5h-71a5,5,0,0,1,-5,-5v-12a5,5,0,0,1,5,-5z"></path><g id="node_text22" fill="black"><text id="kity_text_133" text-rendering="inherit" font-size="12" dy=".8em" y="197.5" x="30.5">phantomjs</text></g></g><g id="minder_node25"><g id="node_expander22" style="cursor: pointer;" display="none"><path id="kity_path_249" fill="white" stroke="gray" d="M113.5,255.5A6,6,0,1,1,101.5,255.5A6,6,0,1,1,113.5,255.5"></path><path id="kity_path_250" fill="none" stroke="gray"></path></g><path id="node_outline23" fill="none" stroke="none" d="M28.5,244.5h68a5,5,0,0,1,5,5v12a5,5,0,0,1,-5,5h-68a5,5,0,0,1,-5,-5v-12a5,5,0,0,1,5,-5z"></path><g id="node_text23" fill="black"><text id="kity_text_135" text-rendering="inherit" font-size="12" dy=".8em" y="249.5" x="33.5">coverage</text></g></g><g id="minder_node26"><g id="node_expander24" style="cursor: pointer;" display="none"><path id="kity_path_255" fill="white" stroke="gray" d="M210.5,307.5A6,6,0,1,1,198.5,307.5A6,6,0,1,1,210.5,307.5"></path><path id="kity_path_256" fill="none" stroke="gray"></path></g><path id="node_outline25" fill="none" stroke="none" d="M154.5,296.5h39a5,5,0,0,1,5,5v12a5,5,0,0,1,-5,5h-39a5,5,0,0,1,-5,-5v-12a5,5,0,0,1,5,-5z"></path><g id="node_text25" fill="black"><text id="kity_text_139" text-rendering="inherit" font-size="12" dy=".8em" y="301.5" x="159.5">eslint</text></g></g><g id="minder_node27"><g id="node_expander31" style="cursor: pointer;"><path id="kity_path_276" fill="white" stroke="gray" d="M315.5,499.5A6,6,0,1,1,303.5,499.5A6,6,0,1,1,315.5,499.5"></path><path id="kity_path_277" fill="none" stroke="gray" d="M305,499.5L314,499.5"></path></g><path id="node_outline32" fill="rgb(238, 243, 246)" stroke="rgb(115, 161, 191)" d="M254.5,486.5h45a3,3,0,0,1,3,3v20a3,3,0,0,1,-3,3h-45a3,3,0,0,1,-3,-3v-20a3,3,0,0,1,3,-3z" stroke-width="1"></path><g id="node_text32" fill="black"><text id="kity_text_153" text-rendering="inherit" font-size="14" dy=".8em" y="492.5" x="271.5">ui</text></g></g><g id="minder_node28"><g id="node_expander26" style="cursor: pointer;" display="none"><path id="kity_path_261" fill="white" stroke="gray" d="M223.5,369.5A6,6,0,1,1,211.5,369.5A6,6,0,1,1,223.5,369.5"></path><path id="kity_path_262" fill="none" stroke="gray"></path></g><path id="node_outline27" fill="none" stroke="none" d="M148.5,358.5h58a5,5,0,0,1,5,5v12a5,5,0,0,1,-5,5h-58a5,5,0,0,1,-5,-5v-12a5,5,0,0,1,5,-5z"></path><g id="node_text27" fill="black"><text id="kity_text_143" text-rendering="inherit" font-size="12" dy=".8em" y="363.5" x="153.5">progress</text></g></g><g id="minder_node29"><g id="node_expander27" style="cursor: pointer;" display="none"><path id="kity_path_264" fill="white" stroke="gray" d="M223.5,421.5A6,6,0,1,1,211.5,421.5A6,6,0,1,1,223.5,421.5"></path><path id="kity_path_265" fill="none" stroke="gray"></path></g><path id="node_outline28" fill="none" stroke="none" d="M167.5,410.5h39a5,5,0,0,1,5,5v12a5,5,0,0,1,-5,5h-39a5,5,0,0,1,-5,-5v-12a5,5,0,0,1,5,-5z"></path><g id="node_text28" fill="black"><text id="kity_text_145" text-rendering="inherit" font-size="12" dy=".8em" y="415.5" x="172.5">toast</text></g></g><g id="minder_node30"><g id="node_expander28" style="cursor: pointer;" display="none"><path id="kity_path_267" fill="white" stroke="gray" d="M223.5,473.5A6,6,0,1,1,211.5,473.5A6,6,0,1,1,223.5,473.5"></path><path id="kity_path_268" fill="none" stroke="gray"></path></g><path id="node_outline29" fill="none" stroke="none" d="M158.5,462.5h48a5,5,0,0,1,5,5v12a5,5,0,0,1,-5,5h-48a5,5,0,0,1,-5,-5v-12a5,5,0,0,1,5,-5z"></path><g id="node_text29" fill="black"><text id="kity_text_147" text-rendering="inherit" font-size="12" dy=".8em" y="467.5" x="163.5">modal</text></g></g><g id="minder_node31"><g id="node_expander29" style="cursor: pointer;" display="none"><path id="kity_path_270" fill="white" stroke="gray" d="M223.5,525.5A6,6,0,1,1,211.5,525.5A6,6,0,1,1,223.5,525.5"></path><path id="kity_path_271" fill="none" stroke="gray"></path></g><path id="node_outline30" fill="none" stroke="none" d="M176.5,514.5h30a5,5,0,0,1,5,5v12a5,5,0,0,1,-5,5h-30a5,5,0,0,1,-5,-5v-12a5,5,0,0,1,5,-5z"></path><g id="node_text30" fill="black"><text id="kity_text_149" text-rendering="inherit" font-size="12" dy=".8em" y="519.5" x="181.5">cell</text></g></g><g id="minder_node32"><g id="node_expander30" style="cursor: pointer;" display="none"><path id="kity_path_273" fill="white" stroke="gray" d="M223.5,577.5A6,6,0,1,1,211.5,577.5A6,6,0,1,1,223.5,577.5"></path><path id="kity_path_274" fill="none" stroke="gray"></path></g><path id="node_outline31" fill="none" stroke="none" d="M170.5,566.5h36a5,5,0,0,1,5,5v12a5,5,0,0,1,-5,5h-36a5,5,0,0,1,-5,-5v-12a5,5,0,0,1,5,-5z" stroke-width="3"></path><g id="node_text31" fill="black"><text id="kity_text_151" text-rendering="inherit" font-size="12" dy=".8em" y="571.5" x="175.5">form</text></g></g><g id="minder_node33"><g id="node_expander32" style="cursor: pointer;" display="none"><path id="kity_path_284" fill="white" stroke="gray" d="M223.5,629.5A6,6,0,1,1,211.5,629.5A6,6,0,1,1,223.5,629.5"></path><path id="kity_path_285" fill="none" stroke="gray"></path></g><path id="node_outline33" fill="none" stroke="none" d="M186.5,618.5h20a5,5,0,0,1,5,5v12a5,5,0,0,1,-5,5h-20a5,5,0,0,1,-5,-5v-12a5,5,0,0,1,5,-5z" stroke-width="3"></path><g id="node_text33" fill="black"><text id="kity_text_281" text-rendering="inherit" font-size="12" dy=".8em" y="623.5" x="191.5">...</text></g></g></g></g></svg>
