<?xml version="1.0" encoding="utf-8"?>
<!DOCTYPE svg PUBLIC "-//W3C//DTD SVG 1.1//EN" "http://www.w3.org/Graphics/SVG/1.1/DTD/svg11.dtd">
<svg version="1.1" id="图层_1" xmlns="http://www.w3.org/2000/svg" xmlns:xlink="http://www.w3.org/1999/xlink" x="0px" y="0px"
	 width="200px" height="200px" viewBox="0 0 200 200" enable-background="new 0 0 200 200" xml:space="preserve">
<g transform="scale(0.1953125, 0.1953125)">
	<path fill="#34495E" d="M921.568,513.612c-0.037,0.292-0.037,0.658-0.073,1.022c-0.036,0.147-0.036,0.292-0.036,0.512
		c-0.036,0.219-0.073,0.511-0.11,0.731c-0.036,0.292-0.073,0.584-0.11,0.877v0.073c-1.023,6.504-4.018,12.569-8.585,17.246
		c-8.585,10.448-17.976,20.241-27.403,29.813c-51.04,51.807-109.644,98.063-173.766,131.603
		c-40.993,21.409-84.764,38.654-130.177,46.985c-49.908,9.134-99.927,8.695-149.615-2.119
		C345.76,721.649,267.9,675.248,199.798,619.713c-31.604-25.721-62.696-53.927-88.819-85.64c-11.436-13.883-11.436-30.252,0-44.136
		c8.585-10.431,17.976-20.222,27.438-29.795c51.005-51.845,109.572-98.063,173.729-131.602
		c40.956-21.41,84.764-38.691,130.178-47.022c49.908-9.134,99.89-8.659,149.578,2.119c85.969,18.706,163.828,65.144,231.932,120.642
		c31.567,25.758,62.659,53.964,88.818,85.658c4.567,4.677,7.527,10.741,8.549,17.245c0,0,0,0.073,0.036,0.073
		c0.036,0.292,0.073,0.584,0.073,0.877c0.073,0.292,0.11,0.512,0.11,0.804c0.036,0.146,0.036,0.292,0.036,0.512
		c0.036,0.292,0.073,0.658,0.073,1.023c0.037,0.512,0.073,1.023,0.073,1.534C921.604,512.517,921.605,513.027,921.568,513.612z
		 M511.998,351.994c-84.837,0-153.598,68.798-153.598,153.651c0,84.764,68.76,153.526,153.598,153.526
		c84.836,0,153.597-68.76,153.597-153.526C665.596,420.793,596.835,351.994,511.998,351.994z M511.998,582.373
		c-42.418,0-76.799-34.345-76.799-76.726c0-42.473,34.381-76.853,76.799-76.853s76.799,34.381,76.799,76.853
		C588.797,548.029,554.417,582.373,511.998,582.373z"/>
</g>
</svg>
