<?xml version="1.0" encoding="utf-8"?>
<svg version="1.1" xmlns="http://www.w3.org/2000/svg" xmlns:xlink="http://www.w3.org/1999/xlink"
  x="0" y="0" width="16" height="16" viewBox="0 0 16 16" enable-background="new 0 0 16 16" xml:space="preserve">
<g id="XMLID_5_" transform="scale(0.1953125, 0.1953125)">
  <path id="XMLID_6_" fill="#34495E" d="M71.68,41.083c-0.003,0.022-0.003,0.049-0.005,0.077c-0.003,0.011-0.003,0.022-0.003,0.038 c-0.003,0.016-0.005,0.038-0.008,0.055c-0.003,0.022-0.005,0.044-0.008,0.066v0.005c-0.077,0.488-0.301,0.943-0.644,1.293 c-0.644,0.784-1.348,1.518-2.055,2.236c-3.828,3.886-8.223,7.355-13.032,9.87c-3.074,1.606-6.357,2.899-9.763,3.524 c-3.743,0.685-7.494,0.652-11.221-0.159c-6.445-1.403-12.284-4.883-17.392-9.048c-2.37-1.929-4.702-4.045-6.661-6.423 c-0.858-1.041-0.858-2.269,0-3.31c0.644-0.782,1.348-1.517,2.058-2.235c3.825-3.888,8.218-7.355,13.03-9.87 c3.072-1.606,6.357-2.902,9.763-3.527c3.743-0.685,7.492-0.649,11.218,0.159c6.448,1.403,12.287,4.886,17.395,9.048 c2.368,1.932,4.699,4.047,6.661,6.424c0.343,0.351,0.565,0.806,0.641,1.293c0,0,0,0.005,0.003,0.005 c0.003,0.022,0.005,0.044,0.005,0.066c0.005,0.022,0.008,0.038,0.008,0.06c0.003,0.011,0.003,0.022,0.003,0.038 c0.003,0.022,0.005,0.049,0.005,0.077c0.003,0.038,0.005,0.077,0.005,0.115C71.682,41.001,71.682,41.039,71.68,41.083z M40.962,28.962c-6.363,0-11.52,5.16-11.52,11.524c0,6.357,5.157,11.514,11.52,11.514c6.363,0,11.52-5.157,11.52-11.514 C52.482,34.121,47.325,28.962,40.962,28.962z M40.962,46.24c-3.181,0-5.76-2.576-5.76-5.754c0-3.185,2.579-5.764,5.76-5.764 c3.181,0,5.76,2.579,5.76,5.764C46.722,43.664,44.143,46.24,40.962,46.24z"/>
</g>
</svg>
