<svg id="kity_svg_6" xmlns="http://www.w3.org/2000/svg" xmlns:xlink="http://www.w3.org/1999/xlink" version="1.1" width="668" height="376" style="display: inline; background: rgb(251, 251, 251);" viewBox="0 0 668 376"><defs id="kity_defs_7"><linearGradient id="kity_linearGradient_17" x1="0" y1="0" x2="0" y2="1"><stop id="kity_stop_18" offset="0" stop-color="rgb(255, 255, 255)"></stop><stop id="kity_stop_19" offset="1" stop-color="rgb(204, 204, 204)"></stop></linearGradient><marker id="kity_marker_2" orient="auto" refX="6" refY="0" viewBox="-7 -7 14 14" markerWidth="7" markerHeight="7" markerUnits="userSpaceOnUse"><path id="kity_path_3" fill="rgb(115, 191, 118)" stroke="none" d="M6,0A6,6,0,1,1,-6,0A6,6,0,1,1,6,0"></path></marker></defs><g id="kity_g_8"><g id="minder1" text-rendering="optimize-speed"><g id="minder_connect_group1"><path id="kity_path_31" fill="none" stroke="rgb(115, 191, 118)" stroke-width="1" d="M286.5,48.5v10h-229.5V66.5"></path><path id="kity_path_33" fill="none" stroke="rgb(115, 191, 118)" stroke-width="1" d="M40.5,92.5V113.5L48.5,113.5"></path><path id="kity_path_35" fill="none" stroke="rgb(115, 191, 118)" stroke-width="1" d="M68.5,122.5V139.5L76.5,139.5"></path><path id="kity_path_37" fill="none" stroke="rgb(115, 191, 118)" stroke-width="1" d="M96.5,148.5V165.5L104.5,165.5"></path><path id="kity_path_39" fill="none" stroke="rgb(115, 191, 118)" stroke-width="1" d="M96.5,148.5V191.5L104.5,191.5"></path><path id="kity_path_41" fill="none" stroke="rgb(115, 191, 118)" stroke-width="1" d="M68.5,122.5V217.5L76.5,217.5"></path><path id="kity_path_43" fill="none" stroke="rgb(115, 191, 118)" stroke-width="1" d="M68.5,122.5V243.5L76.5,243.5"></path><path id="kity_path_45" fill="none" stroke="rgb(115, 191, 118)" stroke-width="1" d="M68.5,122.5V269.5L76.5,269.5"></path><path id="kity_path_47" fill="none" stroke="rgb(115, 191, 118)" stroke-width="1" d="M40.5,92.5V295.5L48.5,295.5"></path><path id="kity_path_49" fill="none" stroke="rgb(115, 191, 118)" stroke-width="1" d="M68.5,304.5V321.5L76.5,321.5"></path><path id="kity_path_51" fill="none" stroke="rgb(115, 191, 118)" stroke-width="1" d="M68.5,304.5V347.5L76.5,347.5"></path><path id="kity_path_53" fill="none" stroke="rgb(115, 191, 118)" stroke-width="1" d="M286.5,48.5v10h-18.5V66.5"></path><path id="kity_path_55" fill="none" stroke="rgb(115, 191, 118)" stroke-width="1" d="M254.5,92.5V113.5L262.5,113.5"></path><path id="kity_path_57" fill="none" stroke="rgb(115, 191, 118)" stroke-width="1" d="M282.5,122.5V139.5L290.5,139.5"></path><path id="kity_path_59" fill="none" stroke="rgb(115, 191, 118)" stroke-width="1" d="M282.5,122.5V165.5L290.5,165.5"></path><path id="kity_path_61" fill="none" stroke="rgb(115, 191, 118)" stroke-width="1" d="M254.5,92.5V191.5L262.5,191.5"></path><path id="kity_path_63" fill="none" stroke="rgb(115, 191, 118)" stroke-width="1" d="M254.5,92.5V217.5L262.5,217.5"></path><path id="kity_path_65" fill="none" stroke="rgb(115, 191, 118)" stroke-width="1" d="M286.5,48.5v10h241V66.5"></path><path id="kity_path_71" fill="none" stroke="rgb(115, 191, 118)" stroke-width="1" d="M286.5,48.5v10h104.5V66.5"></path><path id="kity_path_73" fill="none" stroke="rgb(115, 191, 118)" stroke-width="1" d="M378.5,92.5V113.5L386.5,113.5"></path><path id="kity_path_75" fill="none" stroke="rgb(115, 191, 118)" stroke-width="1" d="M406.5,122.5V139.5L414.5,139.5"></path><path id="kity_path_77" fill="none" stroke="rgb(115, 191, 118)" stroke-width="1" d="M406.5,122.5V165.5L414.5,165.5"></path><path id="kity_path_79" fill="none" stroke="rgb(115, 191, 118)" stroke-width="1" d="M406.5,122.5V191.5L414.5,191.5"></path><path id="kity_path_81" fill="none" stroke="rgb(115, 191, 118)" stroke-width="1" d="M406.5,122.5V217.5L414.5,217.5"></path><path id="kity_path_83" fill="none" stroke="rgb(115, 191, 118)" stroke-width="1" d="M406.5,122.5V243.5L414.5,243.5"></path><path id="kity_path_85" fill="none" stroke="rgb(115, 191, 118)" stroke-width="1" d="M378.5,92.5V269.5L386.5,269.5"></path><path id="kity_path_283" fill="none" stroke="rgb(115, 191, 118)" stroke-width="1" d="M521.5,92.5V113.5L529.5,113.5"></path><path id="kity_path_284" fill="none" stroke="rgb(115, 191, 118)" stroke-width="1" d="M521.5,92.5V139.5L529.5,139.5"></path></g><g id="minder_node1"><path id="kity_path_282" fill="rgba(0, 0, 0, .25)" stroke="none" d="M260.5,22.5h84a5,5,0,0,1,5,5v24a5,5,0,0,1,-5,5h-84a5,5,0,0,1,-5,-5v-24a5,5,0,0,1,5,-5z" display="none"></path><path id="node_outline1" fill="rgb(115, 191, 118)" stroke="rgb(115, 191, 118)" d="M254.5,20.5h63a5,5,0,0,1,5,5v18a5,5,0,0,1,-5,5h-63a5,5,0,0,1,-5,-5v-18a5,5,0,0,1,5,-5z" stroke-width="3"></path><g id="node_text1" fill="white"><text id="kity_text_22" text-rendering="inherit" font-size="16" dy=".8em" y="26.5" x="261.5">PLATO</text></g></g><g id="kity_g_14" display="none"><path id="kity_path_15" fill="rgba(0, 153, 5, 0.5)" stroke="none" d="M573.5,66.5h8v26h-8z"></path><path id="kity_path_16" fill="none" stroke="rgb(0, 128, 4)" d="M573.5,66.5L573.5,92.5" stroke-width="1"></path></g><g id="minder_node2"><path id="kity_path_264" fill="rgba(0, 0, 0, .25)" stroke="none" d="M39.5,72.5h46a5,5,0,0,1,5,5v14a5,5,0,0,1,-5,5h-46a5,5,0,0,1,-5,-5v-14a5,5,0,0,1,5,-5z" display="none"></path><g id="node_expander11" style="cursor: pointer;"><path id="kity_path_201" fill="white" stroke="gray" d="M62.5,59.5A6,6,0,1,1,50.5,59.5A6,6,0,1,1,62.5,59.5"></path><path id="kity_path_202" fill="none" stroke="gray" d="M52,59.5L61,59.5"></path></g><path id="node_outline12" fill="rgb(238, 246, 238)" stroke="rgb(115, 191, 118)" d="M23.5,66.5h66a3,3,0,0,1,3,3v20a3,3,0,0,1,-3,3h-66a3,3,0,0,1,-3,-3v-20a3,3,0,0,1,3,-3z" stroke-width="1"></path><g id="node_text12" fill="black"><text id="kity_text_107" text-rendering="inherit" font-size="14" dy=".8em" y="72.5" x="40.5">core</text></g></g><g id="minder_node3"><path id="kity_path_260" fill="rgba(0, 0, 0, .25)" stroke="none" d="M69.5,98h0a21,21,0,0,1,21,21v0a21,21,0,0,1,-21,21h0a21,21,0,0,1,-21,-21v0a21,21,0,0,1,21,-21z" display="none"></path><g id="node_expander7" style="cursor: pointer;"><path id="kity_path_189" fill="white" stroke="gray" d="M48.5,113.5A6,6,0,1,1,36.5,113.5A6,6,0,1,1,48.5,113.5"></path><path id="kity_path_190" fill="none" stroke="gray" d="M38,113.5L47,113.5"></path></g><path id="node_outline8" fill="none" stroke="none" d="M53.5,104.5h22a5,5,0,0,1,5,5v8a5,5,0,0,1,-5,5h-22a5,5,0,0,1,-5,-5v-8a5,5,0,0,1,5,-5z"></path><g id="node_text8" fill="black"><text id="kity_text_99" text-rendering="inherit" font-size="12" dy=".8em" y="107.5" x="53.5">vue</text></g></g><g id="minder_node4"><path id="kity_path_256" fill="rgba(0, 0, 0, .25)" stroke="none" d="M111.5,112h0a33,33,0,0,1,33,33v0a33,33,0,0,1,-33,33h0a33,33,0,0,1,-33,-33v0a33,33,0,0,1,33,-33z" display="none"></path><g id="node_expander3" style="cursor: pointer;"><path id="kity_path_177" fill="white" stroke="gray" d="M76.5,139.5A6,6,0,1,1,64.5,139.5A6,6,0,1,1,76.5,139.5"></path><path id="kity_path_178" fill="none" stroke="gray" d="M66,139.5L75,139.5"></path></g><path id="node_outline4" fill="none" stroke="none" d="M81.5,130.5h48a5,5,0,0,1,5,5v8a5,5,0,0,1,-5,5h-48a5,5,0,0,1,-5,-5v-8a5,5,0,0,1,5,-5z"></path><g id="node_text4" fill="black"><text id="kity_text_91" text-rendering="inherit" font-size="12" dy=".8em" y="133.5" x="81.5">vuex</text></g></g><g id="minder_node5"><path id="kity_path_254" fill="rgba(0, 0, 0, .25)" stroke="none" d="M155.5,123h0a48,48,0,0,1,48,48v0a48,48,0,0,1,-48,48h0a48,48,0,0,1,-48,-48v0a48,48,0,0,1,48,-48z" display="none"></path><g id="node_expander1" style="cursor: pointer;" display="none"><path id="kity_path_171" fill="white" stroke="gray" d="M104.5,165.5A6,6,0,1,1,92.5,165.5A6,6,0,1,1,104.5,165.5"></path><path id="kity_path_172" fill="none" stroke="gray"></path></g><path id="node_outline2" fill="none" stroke="none" d="M109.5,156.5h77a5,5,0,0,1,5,5v8a5,5,0,0,1,-5,5h-77a5,5,0,0,1,-5,-5v-8a5,5,0,0,1,5,-5z"></path><g id="node_text2" fill="black"><text id="kity_text_87" text-rendering="inherit" font-size="12" dy=".8em" y="159.5" x="109.5">vuex-promise</text></g></g><g id="minder_node6"><path id="kity_path_255" fill="rgba(0, 0, 0, .25)" stroke="none" d="M170,134h0a63,63,0,0,1,63,63v0a63,63,0,0,1,-63,63h0a63,63,0,0,1,-63,-63v0a63,63,0,0,1,63,-63z" display="none"></path><g id="node_expander2" style="cursor: pointer;" display="none"><path id="kity_path_174" fill="white" stroke="gray" d="M104.5,191.5A6,6,0,1,1,92.5,191.5A6,6,0,1,1,104.5,191.5"></path><path id="kity_path_175" fill="none" stroke="gray"></path></g><path id="node_outline3" fill="none" stroke="none" d="M109.5,182.5h104a5,5,0,0,1,5,5v8a5,5,0,0,1,-5,5h-104a5,5,0,0,1,-5,-5v-8a5,5,0,0,1,5,-5z"></path><g id="node_text3" fill="black"><text id="kity_text_89" text-rendering="inherit" font-size="12" dy=".8em" y="185.5" x="109.5">vuex-localstorage</text></g></g><g id="minder_node7"><path id="kity_path_257" fill="rgba(0, 0, 0, .25)" stroke="none" d="M118,184h0a39,39,0,0,1,39,39v0a39,39,0,0,1,-39,39h0a39,39,0,0,1,-39,-39v0a39,39,0,0,1,39,-39z" display="none"></path><g id="node_expander4" style="cursor: pointer;" display="none"><path id="kity_path_180" fill="white" stroke="gray" d="M76.5,217.5A6,6,0,1,1,64.5,217.5A6,6,0,1,1,76.5,217.5"></path><path id="kity_path_181" fill="none" stroke="gray"></path></g><path id="node_outline5" fill="none" stroke="none" d="M81.5,208.5h60a5,5,0,0,1,5,5v8a5,5,0,0,1,-5,5h-60a5,5,0,0,1,-5,-5v-8a5,5,0,0,1,5,-5z"></path><g id="node_text5" fill="black"><text id="kity_text_93" text-rendering="inherit" font-size="12" dy=".8em" y="211.5" x="81.5">vue-router</text></g></g><g id="minder_node8"><path id="kity_path_258" fill="rgba(0, 0, 0, .25)" stroke="none" d="M117,211h0a38,38,0,0,1,38,38v0a38,38,0,0,1,-38,38h0a38,38,0,0,1,-38,-38v0a38,38,0,0,1,38,-38z" display="none"></path><g id="node_expander5" style="cursor: pointer;" display="none"><path id="kity_path_183" fill="white" stroke="gray" d="M76.5,243.5A6,6,0,1,1,64.5,243.5A6,6,0,1,1,76.5,243.5"></path><path id="kity_path_184" fill="none" stroke="gray"></path></g><path id="node_outline6" fill="none" stroke="none" d="M81.5,234.5h58a5,5,0,0,1,5,5v8a5,5,0,0,1,-5,5h-58a5,5,0,0,1,-5,-5v-8a5,5,0,0,1,5,-5z"></path><g id="node_text6" fill="black"><text id="kity_text_95" text-rendering="inherit" font-size="12" dy=".8em" y="237.5" x="81.5">plato-i18n</text></g></g><g id="minder_node9"><path id="kity_path_259" fill="rgba(0, 0, 0, .25)" stroke="none" d="M132,222h0a53,53,0,0,1,53,53v0a53,53,0,0,1,-53,53h0a53,53,0,0,1,-53,-53v0a53,53,0,0,1,53,-53z" display="none"></path><g id="node_expander6" style="cursor: pointer;" display="none"><path id="kity_path_186" fill="white" stroke="gray" d="M76.5,269.5A6,6,0,1,1,64.5,269.5A6,6,0,1,1,76.5,269.5"></path><path id="kity_path_187" fill="none" stroke="gray"></path></g><path id="node_outline7" fill="none" stroke="none" d="M81.5,260.5h86a5,5,0,0,1,5,5v8a5,5,0,0,1,-5,5h-86a5,5,0,0,1,-5,-5v-8a5,5,0,0,1,5,-5z"></path><g id="node_text7" fill="black"><text id="kity_text_97" text-rendering="inherit" font-size="12" dy=".8em" y="263.5" x="81.5">plato-validator</text></g></g><g id="minder_node10"><path id="kity_path_263" fill="rgba(0, 0, 0, .25)" stroke="none" d="M100,252h0a49,49,0,0,1,49,49v0a49,49,0,0,1,-49,49h0a49,49,0,0,1,-49,-49v0a49,49,0,0,1,49,-49z" display="none"></path><g id="node_expander10" style="cursor: pointer;"><path id="kity_path_198" fill="white" stroke="gray" d="M48.5,295.5A6,6,0,1,1,36.5,295.5A6,6,0,1,1,48.5,295.5"></path><path id="kity_path_199" fill="none" stroke="gray" d="M38,295.5L47,295.5"></path></g><path id="node_outline11" fill="none" stroke="none" d="M53.5,286.5h78a5,5,0,0,1,5,5v8a5,5,0,0,1,-5,5h-78a5,5,0,0,1,-5,-5v-8a5,5,0,0,1,5,-5z"></path><g id="node_text11" fill="black"><text id="kity_text_105" text-rendering="inherit" font-size="12" dy=".8em" y="289.5" x="53.5">plato-request</text></g></g><g id="minder_node11"><path id="kity_path_261" fill="rgba(0, 0, 0, .25)" stroke="none" d="M130,276h0a51,51,0,0,1,51,51v0a51,51,0,0,1,-51,51h0a51,51,0,0,1,-51,-51v0a51,51,0,0,1,51,-51z" display="none"></path><g id="node_expander8" style="cursor: pointer;" display="none"><path id="kity_path_192" fill="white" stroke="gray" d="M76.5,321.5A6,6,0,1,1,64.5,321.5A6,6,0,1,1,76.5,321.5"></path><path id="kity_path_193" fill="none" stroke="gray"></path></g><path id="node_outline9" fill="none" stroke="none" d="M81.5,312.5h82a5,5,0,0,1,5,5v8a5,5,0,0,1,-5,5h-82a5,5,0,0,1,-5,-5v-8a5,5,0,0,1,5,-5z"></path><g id="node_text9" fill="black"><text id="kity_text_101" text-rendering="inherit" font-size="12" dy=".8em" y="315.5" x="81.5">whatwg-fetch</text></g></g><g id="minder_node12"><path id="kity_path_262" fill="rgba(0, 0, 0, .25)" stroke="none" d="M121,311h0a42,42,0,0,1,42,42v0a42,42,0,0,1,-42,42h0a42,42,0,0,1,-42,-42v0a42,42,0,0,1,42,-42z" display="none"></path><g id="node_expander9" style="cursor: pointer;" display="none"><path id="kity_path_195" fill="white" stroke="gray" d="M76.5,347.5A6,6,0,1,1,64.5,347.5A6,6,0,1,1,76.5,347.5"></path><path id="kity_path_196" fill="none" stroke="gray"></path></g><path id="node_outline10" fill="none" stroke="none" d="M81.5,338.5h65a5,5,0,0,1,5,5v8a5,5,0,0,1,-5,5h-65a5,5,0,0,1,-5,-5v-8a5,5,0,0,1,5,-5z"></path><g id="node_text10" fill="black"><text id="kity_text_103" text-rendering="inherit" font-size="12" dy=".8em" y="341.5" x="81.5">nd-promise</text></g></g><g id="minder_node13"><path id="kity_path_270" fill="rgba(0, 0, 0, .25)" stroke="none" d="M253.5,72.5h40a5,5,0,0,1,5,5v14a5,5,0,0,1,-5,5h-40a5,5,0,0,1,-5,-5v-14a5,5,0,0,1,5,-5z" display="none"></path><g id="node_expander17" style="cursor: pointer;"><path id="kity_path_219" fill="white" stroke="gray" d="M273.5,59.5A6,6,0,1,1,261.5,59.5A6,6,0,1,1,273.5,59.5"></path><path id="kity_path_220" fill="none" stroke="gray" d="M263,59.5L272,59.5"></path></g><path id="node_outline18" fill="rgb(238, 246, 238)" stroke="rgb(115, 191, 118)" d="M237.5,66.5h60a3,3,0,0,1,3,3v20a3,3,0,0,1,-3,3h-60a3,3,0,0,1,-3,-3v-20a3,3,0,0,1,3,-3z" stroke-width="1"></path><g id="node_text18" fill="black"><text id="kity_text_119" text-rendering="inherit" font-size="14" dy=".8em" y="72.5" x="254.5">dev</text></g></g><g id="minder_node14"><path id="kity_path_267" fill="rgba(0, 0, 0, .25)" stroke="none" d="M302,82h0a37,37,0,0,1,37,37v0a37,37,0,0,1,-37,37h0a37,37,0,0,1,-37,-37v0a37,37,0,0,1,37,-37z" display="none"></path><g id="node_expander14" style="cursor: pointer;"><path id="kity_path_210" fill="white" stroke="gray" d="M262.5,113.5A6,6,0,1,1,250.5,113.5A6,6,0,1,1,262.5,113.5"></path><path id="kity_path_211" fill="none" stroke="gray" d="M252,113.5L261,113.5"></path></g><path id="node_outline15" fill="none" stroke="none" d="M267.5,104.5h56a5,5,0,0,1,5,5v8a5,5,0,0,1,-5,5h-56a5,5,0,0,1,-5,-5v-8a5,5,0,0,1,5,-5z"></path><g id="node_text15" fill="black"><text id="kity_text_113" text-rendering="inherit" font-size="12" dy=".8em" y="107.5" x="267.5">webpack</text></g></g><g id="minder_node15"><path id="kity_path_265" fill="rgba(0, 0, 0, .25)" stroke="none" d="M318.5,118h0a27,27,0,0,1,27,27v0a27,27,0,0,1,-27,27h0a27,27,0,0,1,-27,-27v0a27,27,0,0,1,27,-27z" display="none"></path><g id="node_expander12" style="cursor: pointer;" display="none"><path id="kity_path_204" fill="white" stroke="gray" d="M290.5,139.5A6,6,0,1,1,278.5,139.5A6,6,0,1,1,290.5,139.5"></path><path id="kity_path_205" fill="none" stroke="gray"></path></g><path id="node_outline13" fill="none" stroke="none" d="M295.5,130.5h35a5,5,0,0,1,5,5v8a5,5,0,0,1,-5,5h-35a5,5,0,0,1,-5,-5v-8a5,5,0,0,1,5,-5z"></path><g id="node_text13" fill="black"><text id="kity_text_109" text-rendering="inherit" font-size="12" dy=".8em" y="133.5" x="295.5">babel</text></g></g><g id="minder_node16"><path id="kity_path_266" fill="rgba(0, 0, 0, .25)" stroke="none" d="M322,141h0a30,30,0,0,1,30,30v0a30,30,0,0,1,-30,30h0a30,30,0,0,1,-30,-30v0a30,30,0,0,1,30,-30z" display="none"></path><g id="node_expander13" style="cursor: pointer;" display="none"><path id="kity_path_207" fill="white" stroke="gray" d="M290.5,165.5A6,6,0,1,1,278.5,165.5A6,6,0,1,1,290.5,165.5"></path><path id="kity_path_208" fill="none" stroke="gray"></path></g><path id="node_outline14" fill="none" stroke="none" d="M295.5,156.5h42a5,5,0,0,1,5,5v8a5,5,0,0,1,-5,5h-42a5,5,0,0,1,-5,-5v-8a5,5,0,0,1,5,-5z"></path><g id="node_text14" fill="black"><text id="kity_text_111" text-rendering="inherit" font-size="12" dy=".8em" y="159.5" x="295.5">postcss</text></g></g><g id="minder_node17"><path id="kity_path_268" fill="rgba(0, 0, 0, .25)" stroke="none" d="M283.5,176h0a21,21,0,0,1,21,21v0a21,21,0,0,1,-21,21h0a21,21,0,0,1,-21,-21v0a21,21,0,0,1,21,-21z" display="none"></path><g id="node_expander15" style="cursor: pointer;" display="none"><path id="kity_path_213" fill="white" stroke="gray" d="M262.5,191.5A6,6,0,1,1,250.5,191.5A6,6,0,1,1,262.5,191.5"></path><path id="kity_path_214" fill="none" stroke="gray"></path></g><path id="node_outline16" fill="none" stroke="none" d="M267.5,182.5h22a5,5,0,0,1,5,5v8a5,5,0,0,1,-5,5h-22a5,5,0,0,1,-5,-5v-8a5,5,0,0,1,5,-5z"></path><g id="node_text16" fill="black"><text id="kity_text_115" text-rendering="inherit" font-size="12" dy=".8em" y="185.5" x="267.5">koa</text></g></g><g id="minder_node18"><path id="kity_path_269" fill="rgba(0, 0, 0, .25)" stroke="none" d="M302.5,185h0a38,38,0,0,1,38,38v0a38,38,0,0,1,-38,38h0a38,38,0,0,1,-38,-38v0a38,38,0,0,1,38,-38z" display="none"></path><g id="node_expander16" style="cursor: pointer;" display="none"><path id="kity_path_216" fill="white" stroke="gray" d="M262.5,217.5A6,6,0,1,1,250.5,217.5A6,6,0,1,1,262.5,217.5"></path><path id="kity_path_217" fill="none" stroke="gray"></path></g><path id="node_outline17" fill="none" stroke="none" d="M267.5,208.5h58a5,5,0,0,1,5,5v8a5,5,0,0,1,-5,5h-58a5,5,0,0,1,-5,-5v-8a5,5,0,0,1,5,-5z"></path><g id="node_text17" fill="black"><text id="kity_text_117" text-rendering="inherit" font-size="12" dy=".8em" y="211.5" x="267.5">nodemon</text></g></g><g id="minder_node19" opacity="1"><path id="kity_path_273" fill="rgba(0, 0, 0, .25)" stroke="none" d="M520.5,72.5h23a5,5,0,0,1,5,5v14a5,5,0,0,1,-5,5h-23a5,5,0,0,1,-5,-5v-14a5,5,0,0,1,5,-5z" display="none"></path><g id="node_expander20" style="cursor: pointer;"><path id="kity_path_228" fill="white" stroke="gray" d="M533,59.5A6,6,0,1,1,521,59.5A6,6,0,1,1,533,59.5"></path><path id="kity_path_229" fill="none" stroke="gray" d="M522.5,59.5L531.5,59.5"></path></g><path id="node_outline21" fill="rgb(238, 246, 238)" stroke="rgb(115, 191, 118)" d="M504.5,66.5h45a3,3,0,0,1,3,3v20a3,3,0,0,1,-3,3h-45a3,3,0,0,1,-3,-3v-20a3,3,0,0,1,3,-3z" stroke-width="1"></path><g id="node_text21" fill="black"><text id="kity_text_125" text-rendering="inherit" font-size="14" dy=".8em" y="72.5" x="521.5">ui</text></g></g><g id="minder_node22"><path id="kity_path_281" fill="rgba(0, 0, 0, .25)" stroke="none" d="M377.5,72.5h37a5,5,0,0,1,5,5v14a5,5,0,0,1,-5,5h-37a5,5,0,0,1,-5,-5v-14a5,5,0,0,1,5,-5z" display="none"></path><g id="node_expander28" style="cursor: pointer;"><path id="kity_path_252" fill="white" stroke="gray" d="M396.5,59.5A6,6,0,1,1,384.5,59.5A6,6,0,1,1,396.5,59.5"></path><path id="kity_path_253" fill="none" stroke="gray" d="M386,59.5L395,59.5"></path></g><path id="node_outline29" fill="rgb(238, 246, 238)" stroke="rgb(115, 191, 118)" d="M361.5,66.5h58a3,3,0,0,1,3,3v20a3,3,0,0,1,-3,3h-58a3,3,0,0,1,-3,-3v-20a3,3,0,0,1,3,-3z" stroke-width="1"></path><g id="node_text29" fill="black"><text id="kity_text_141" text-rendering="inherit" font-size="14" dy=".8em" y="72.5" x="378.5">test</text></g></g><g id="minder_node23"><path id="kity_path_279" fill="rgba(0, 0, 0, .25)" stroke="none" d="M415.5,91h0a28,28,0,0,1,28,28v0a28,28,0,0,1,-28,28h0a28,28,0,0,1,-28,-28v0a28,28,0,0,1,28,-28z" display="none"></path><g id="node_expander26" style="cursor: pointer;"><path id="kity_path_246" fill="white" stroke="gray" d="M386.5,113.5A6,6,0,1,1,374.5,113.5A6,6,0,1,1,386.5,113.5"></path><path id="kity_path_247" fill="none" stroke="gray" d="M376,113.5L385,113.5"></path></g><path id="node_outline27" fill="none" stroke="none" d="M391.5,104.5h37a5,5,0,0,1,5,5v8a5,5,0,0,1,-5,5h-37a5,5,0,0,1,-5,-5v-8a5,5,0,0,1,5,-5z"></path><g id="node_text27" fill="black"><text id="kity_text_137" text-rendering="inherit" font-size="12" dy=".8em" y="107.5" x="391.5">karma</text></g></g><g id="minder_node24"><path id="kity_path_274" fill="rgba(0, 0, 0, .25)" stroke="none" d="M446.5,115h0a30,30,0,0,1,30,30v0a30,30,0,0,1,-30,30h0a30,30,0,0,1,-30,-30v0a30,30,0,0,1,30,-30z" display="none"></path><g id="node_expander21" style="cursor: pointer;" display="none"><path id="kity_path_231" fill="white" stroke="gray" d="M414.5,139.5A6,6,0,1,1,402.5,139.5A6,6,0,1,1,414.5,139.5"></path><path id="kity_path_232" fill="none" stroke="gray"></path></g><path id="node_outline22" fill="none" stroke="none" d="M419.5,130.5h42a5,5,0,0,1,5,5v8a5,5,0,0,1,-5,5h-42a5,5,0,0,1,-5,-5v-8a5,5,0,0,1,5,-5z"></path><g id="node_text22" fill="black"><text id="kity_text_127" text-rendering="inherit" font-size="12" dy=".8em" y="133.5" x="419.5">mocha</text></g></g><g id="minder_node25"><path id="kity_path_275" fill="rgba(0, 0, 0, .25)" stroke="none" d="M437.5,149h0a22,22,0,0,1,22,22v0a22,22,0,0,1,-22,22h0a22,22,0,0,1,-22,-22v0a22,22,0,0,1,22,-22z" display="none"></path><g id="node_expander22" style="cursor: pointer;" display="none"><path id="kity_path_234" fill="white" stroke="gray" d="M414.5,165.5A6,6,0,1,1,402.5,165.5A6,6,0,1,1,414.5,165.5"></path><path id="kity_path_235" fill="none" stroke="gray"></path></g><path id="node_outline23" fill="none" stroke="none" d="M419.5,156.5h26a5,5,0,0,1,5,5v8a5,5,0,0,1,-5,5h-26a5,5,0,0,1,-5,-5v-8a5,5,0,0,1,5,-5z"></path><g id="node_text23" fill="black"><text id="kity_text_129" text-rendering="inherit" font-size="12" dy=".8em" y="159.5" x="419.5">chai</text></g></g><g id="minder_node26"><path id="kity_path_276" fill="rgba(0, 0, 0, .25)" stroke="none" d="M439.5,173h0a24,24,0,0,1,24,24v0a24,24,0,0,1,-24,24h0a24,24,0,0,1,-24,-24v0a24,24,0,0,1,24,-24z" display="none"></path><g id="node_expander23" style="cursor: pointer;" display="none"><path id="kity_path_237" fill="white" stroke="gray" d="M414.5,191.5A6,6,0,1,1,402.5,191.5A6,6,0,1,1,414.5,191.5"></path><path id="kity_path_238" fill="none" stroke="gray"></path></g><path id="node_outline24" fill="none" stroke="none" d="M419.5,182.5h30a5,5,0,0,1,5,5v8a5,5,0,0,1,-5,5h-30a5,5,0,0,1,-5,-5v-8a5,5,0,0,1,5,-5z"></path><g id="node_text24" fill="black"><text id="kity_text_131" text-rendering="inherit" font-size="12" dy=".8em" y="185.5" x="419.5">sinon</text></g></g><g id="minder_node27"><path id="kity_path_277" fill="rgba(0, 0, 0, .25)" stroke="none" d="M456.5,183h0a40,40,0,0,1,40,40v0a40,40,0,0,1,-40,40h0a40,40,0,0,1,-40,-40v0a40,40,0,0,1,40,-40z" display="none"></path><g id="node_expander24" style="cursor: pointer;" display="none"><path id="kity_path_240" fill="white" stroke="gray" d="M414.5,217.5A6,6,0,1,1,402.5,217.5A6,6,0,1,1,414.5,217.5"></path><path id="kity_path_241" fill="none" stroke="gray"></path></g><path id="node_outline25" fill="none" stroke="none" d="M419.5,208.5h61a5,5,0,0,1,5,5v8a5,5,0,0,1,-5,5h-61a5,5,0,0,1,-5,-5v-8a5,5,0,0,1,5,-5z"></path><g id="node_text25" fill="black"><text id="kity_text_133" text-rendering="inherit" font-size="12" dy=".8em" y="211.5" x="419.5">phantomjs</text></g></g><g id="minder_node28"><path id="kity_path_278" fill="rgba(0, 0, 0, .25)" stroke="none" d="M455,211h0a38,38,0,0,1,38,38v0a38,38,0,0,1,-38,38h0a38,38,0,0,1,-38,-38v0a38,38,0,0,1,38,-38z" display="none"></path><g id="node_expander25" style="cursor: pointer;" display="none"><path id="kity_path_243" fill="white" stroke="gray" d="M414.5,243.5A6,6,0,1,1,402.5,243.5A6,6,0,1,1,414.5,243.5"></path><path id="kity_path_244" fill="none" stroke="gray"></path></g><path id="node_outline26" fill="none" stroke="none" d="M419.5,234.5h58a5,5,0,0,1,5,5v8a5,5,0,0,1,-5,5h-58a5,5,0,0,1,-5,-5v-8a5,5,0,0,1,5,-5z"></path><g id="node_text26" fill="black"><text id="kity_text_135" text-rendering="inherit" font-size="12" dy=".8em" y="237.5" x="419.5">coverage</text></g></g><g id="minder_node29"><path id="kity_path_280" fill="rgba(0, 0, 0, .25)" stroke="none" d="M411,251h0a24,24,0,0,1,24,24v0a24,24,0,0,1,-24,24h0a24,24,0,0,1,-24,-24v0a24,24,0,0,1,24,-24z" display="none"></path><g id="node_expander27" style="cursor: pointer;" display="none"><path id="kity_path_249" fill="white" stroke="gray" d="M386.5,269.5A6,6,0,1,1,374.5,269.5A6,6,0,1,1,386.5,269.5"></path><path id="kity_path_250" fill="none" stroke="gray"></path></g><path id="node_outline28" fill="none" stroke="none" d="M391.5,260.5h29a5,5,0,0,1,5,5v8a5,5,0,0,1,-5,5h-29a5,5,0,0,1,-5,-5v-8a5,5,0,0,1,5,-5z"></path><g id="node_text28" fill="black"><text id="kity_text_139" text-rendering="inherit" font-size="12" dy=".8em" y="263.5" x="391.5">eslint</text></g></g><g id="kity_g_12" display="none"><path id="kity_path_13" fill="none" stroke="rgb(66, 112, 68)" d="M507.5,66.5h58a3,3,0,0,1,3,3v20a3,3,0,0,1,-3,3h-58a3,3,0,0,1,-3,-3v-20a3,3,0,0,1,3,-3z" stroke-width="5"></path></g><g id="minder_node20"><path id="kity_path_271" fill="rgba(0, 0, 0, .25)" stroke="none" d="M597.5,54h0a65,65,0,0,1,65,65v0a65,65,0,0,1,-65,65h0a65,65,0,0,1,-65,-65v0a65,65,0,0,1,65,-65z" display="none"></path><g id="node_expander18" style="cursor: pointer;" display="none"><path id="kity_path_222" fill="white" stroke="gray" d="M529.5,113.5A6,6,0,1,1,517.5,113.5A6,6,0,1,1,529.5,113.5"></path><path id="kity_path_223" fill="none" stroke="gray"></path></g><path id="node_outline19" fill="none" stroke="none" d="M534.5,104.5h109a5,5,0,0,1,5,5v8a5,5,0,0,1,-5,5h-109a5,5,0,0,1,-5,-5v-8a5,5,0,0,1,5,-5z"></path><g id="node_text19" fill="black"><text id="kity_text_121" text-rendering="inherit" font-size="12" dy=".8em" y="107.5" x="534.5">components</text></g></g><g id="minder_node21"><path id="kity_path_272" fill="rgba(0, 0, 0, .25)" stroke="none" d="M573.5,103h0a42,42,0,0,1,42,42v0a42,42,0,0,1,-42,42h0a42,42,0,0,1,-42,-42v0a42,42,0,0,1,42,-42z" display="none"></path><g id="node_expander19" style="cursor: pointer;" display="none"><path id="kity_path_225" fill="white" stroke="gray" d="M529.5,139.5A6,6,0,1,1,517.5,139.5A6,6,0,1,1,529.5,139.5"></path><path id="kity_path_226" fill="none" stroke="gray"></path></g><path id="node_outline20" fill="none" stroke="none" d="M534.5,130.5h65a5,5,0,0,1,5,5v8a5,5,0,0,1,-5,5h-65a5,5,0,0,1,-5,-5v-8a5,5,0,0,1,5,-5z"></path><g id="node_text20" fill="black"><text id="kity_text_123" text-rendering="inherit" font-size="12" dy=".8em" y="133.5" x="534.5">styles</text></g></g></g></g></svg>
