<svg id="kity_svg_6" xmlns="http://www.w3.org/2000/svg" xmlns:xlink="http://www.w3.org/1999/xlink" version="1.1" width="503" height="376" style="display: inline; background: rgb(251, 251, 251);" viewBox="0 0 503 376"><defs id="kity_defs_7"><linearGradient id="kity_linearGradient_17" x1="0" y1="0" x2="0" y2="1"><stop id="kity_stop_18" offset="0" stop-color="rgb(255, 255, 255)"></stop><stop id="kity_stop_19" offset="1" stop-color="rgb(204, 204, 204)"></stop></linearGradient><marker id="kity_marker_2" orient="auto" refX="6" refY="0" viewBox="-7 -7 14 14" markerWidth="7" markerHeight="7" markerUnits="userSpaceOnUse"><path id="kity_path_3" fill="rgb(115, 161, 191)" stroke="none" d="M6,0A6,6,0,1,1,-6,0A6,6,0,1,1,6,0"></path></marker></defs><g id="kity_g_8"><g id="minder1" text-rendering="optimize-speed"><g id="minder_connect_group1"><path id="kity_path_31" fill="none" stroke="rgb(115, 191, 118)" stroke-width="1" d="M221.5,48.5v10h-166V66.5"></path><path id="kity_path_33" fill="none" stroke="rgb(115, 191, 118)" stroke-width="1" d="M40.5,92.5V113.5L48.5,113.5"></path><path id="kity_path_35" fill="none" stroke="rgb(115, 191, 118)" stroke-width="1" d="M68.5,122.5V139.5L76.5,139.5"></path><path id="kity_path_37" fill="none" stroke="rgb(115, 191, 118)" stroke-width="1" d="M96.5,148.5V165.5L104.5,165.5"></path><path id="kity_path_39" fill="none" stroke="rgb(115, 191, 118)" stroke-width="1" d="M96.5,148.5V191.5L104.5,191.5"></path><path id="kity_path_41" fill="none" stroke="rgb(115, 191, 118)" stroke-width="1" d="M68.5,122.5V217.5L76.5,217.5"></path><path id="kity_path_43" fill="none" stroke="rgb(115, 191, 118)" stroke-width="1" d="M68.5,122.5V243.5L76.5,243.5"></path><path id="kity_path_45" fill="none" stroke="rgb(115, 191, 118)" stroke-width="1" d="M68.5,122.5V269.5L76.5,269.5"></path><path id="kity_path_47" fill="none" stroke="rgb(115, 191, 118)" stroke-width="1" d="M40.5,92.5V295.5L48.5,295.5"></path><path id="kity_path_49" fill="none" stroke="rgb(115, 191, 118)" stroke-width="1" d="M68.5,304.5V321.5L76.5,321.5"></path><path id="kity_path_51" fill="none" stroke="rgb(115, 191, 118)" stroke-width="1" d="M68.5,304.5V347.5L76.5,347.5"></path><path id="kity_path_53" fill="none" stroke="rgb(115, 191, 118)" stroke-width="1" d="M221.5,48.5v10h43.5V66.5"></path><path id="kity_path_55" fill="none" stroke="rgb(115, 191, 118)" stroke-width="1" d="M252.5,92.5V113.5L260.5,113.5"></path><path id="kity_path_57" fill="none" stroke="rgb(115, 191, 118)" stroke-width="1" d="M280.5,122.5V139.5L288.5,139.5"></path><path id="kity_path_59" fill="none" stroke="rgb(115, 191, 118)" stroke-width="1" d="M280.5,122.5V165.5L288.5,165.5"></path><path id="kity_path_61" fill="none" stroke="rgb(115, 191, 118)" stroke-width="1" d="M252.5,92.5V191.5L260.5,191.5"></path><path id="kity_path_63" fill="none" stroke="rgb(115, 191, 118)" stroke-width="1" d="M252.5,92.5V217.5L260.5,217.5"></path><path id="kity_path_65" fill="none" stroke="rgb(115, 191, 118)" stroke-width="1" d="M221.5,48.5v10h168V66.5"></path><path id="kity_path_67" fill="none" stroke="rgb(115, 191, 118)" stroke-width="1" d="M376.5,92.5V113.5L384.5,113.5"></path><path id="kity_path_69" fill="none" stroke="rgb(115, 191, 118)" stroke-width="1" d="M404.5,122.5V139.5L412.5,139.5"></path><path id="kity_path_71" fill="none" stroke="rgb(115, 191, 118)" stroke-width="1" d="M404.5,122.5V165.5L412.5,165.5"></path><path id="kity_path_73" fill="none" stroke="rgb(115, 191, 118)" stroke-width="1" d="M404.5,122.5V191.5L412.5,191.5"></path><path id="kity_path_75" fill="none" stroke="rgb(115, 191, 118)" stroke-width="1" d="M404.5,122.5V217.5L412.5,217.5"></path><path id="kity_path_77" fill="none" stroke="rgb(115, 191, 118)" stroke-width="1" d="M404.5,122.5V243.5L412.5,243.5"></path><path id="kity_path_79" fill="none" stroke="rgb(115, 191, 118)" stroke-width="1" d="M376.5,92.5V347.5L384.5,347.5"></path><path id="kity_path_279" fill="none" stroke="rgb(115, 191, 118)" stroke-width="1" d="M376.5,92.5V269.5L384.5,269.5"></path><path id="kity_path_287" fill="none" stroke="rgb(115, 191, 118)" stroke-width="1" d="M404.5,278.5V295.5L412.5,295.5"></path><path id="kity_path_295" fill="none" stroke="rgb(115, 191, 118)" stroke-width="1" d="M404.5,278.5V321.5L412.5,321.5"></path></g><g id="minder_node1"><path id="node_outline1" fill="rgb(115, 191, 118)" stroke="rgb(115, 191, 118)" d="M188.5,20.5h65a5,5,0,0,1,5,5v18a5,5,0,0,1,-5,5h-65a5,5,0,0,1,-5,-5v-18a5,5,0,0,1,5,-5z" stroke-width="3"></path><g id="node_text1" fill="white"><text id="kity_text_22" text-rendering="inherit" font-size="16" dy=".8em" y="24.09999990463257" x="195.5">PLATO</text></g></g><g id="kity_g_12"><path id="kity_path_13" fill="none" stroke="none" d="M195.5,34.5h0v0h0z"></path></g><g id="kity_g_14"><path id="kity_path_15" fill="none" stroke="none" d="M195.5,34.5h0v0h0z"></path><path id="kity_path_16" fill="none" stroke="none"></path></g><g id="minder_node2"><g id="node_expander11" style="cursor: pointer;"><path id="kity_path_201" fill="white" stroke="gray" d="M61,59.5A6,6,0,1,1,49,59.5A6,6,0,1,1,61,59.5"></path><path id="kity_path_202" fill="none" stroke="gray" d="M50.5,59.5L59.5,59.5"></path></g><path id="node_outline12" fill="rgb(238, 246, 238)" stroke="rgb(115, 191, 118)" d="M23.5,66.5h63a3,3,0,0,1,3,3v20a3,3,0,0,1,-3,3h-63a3,3,0,0,1,-3,-3v-20a3,3,0,0,1,3,-3z" stroke-width="1"></path><g id="node_text12" fill="black"><text id="kity_text_107" text-rendering="inherit" font-size="14" dy=".8em" y="70.40000009536743" x="40.5">core</text></g></g><g id="minder_node3"><g id="node_expander7" style="cursor: pointer;"><path id="kity_path_189" fill="white" stroke="gray" d="M48.5,113.5A6,6,0,1,1,36.5,113.5A6,6,0,1,1,48.5,113.5"></path><path id="kity_path_190" fill="none" stroke="gray" d="M38,113.5L47,113.5"></path></g><path id="node_outline8" fill="none" stroke="none" d="M53.5,104.5h21a5,5,0,0,1,5,5v8a5,5,0,0,1,-5,5h-21a5,5,0,0,1,-5,-5v-8a5,5,0,0,1,5,-5z"></path><g id="node_text8" fill="black"><text id="kity_text_99" text-rendering="inherit" font-size="12" dy=".8em" y="105.70000004768372" x="53.5">vue</text></g></g><g id="minder_node4"><g id="node_expander3" style="cursor: pointer;"><path id="kity_path_177" fill="white" stroke="gray" d="M76.5,139.5A6,6,0,1,1,64.5,139.5A6,6,0,1,1,76.5,139.5"></path><path id="kity_path_178" fill="none" stroke="gray" d="M66,139.5L75,139.5"></path></g><path id="node_outline4" fill="none" stroke="none" d="M81.5,130.5h27a5,5,0,0,1,5,5v8a5,5,0,0,1,-5,5h-27a5,5,0,0,1,-5,-5v-8a5,5,0,0,1,5,-5z" stroke-width="3"></path><g id="node_text4" fill="black"><text id="kity_text_91" text-rendering="inherit" font-size="12" dy=".8em" y="131.70000004768372" x="81.5">vuex</text></g></g><g id="minder_node5"><g id="node_expander1" style="cursor: pointer;" display="none"><path id="kity_path_171" fill="white" stroke="gray" d="M104.5,165.5A6,6,0,1,1,92.5,165.5A6,6,0,1,1,104.5,165.5"></path><path id="kity_path_172" fill="none" stroke="gray"></path></g><path id="node_outline2" fill="none" stroke="none" d="M109.5,156.5h73a5,5,0,0,1,5,5v8a5,5,0,0,1,-5,5h-73a5,5,0,0,1,-5,-5v-8a5,5,0,0,1,5,-5z" stroke-width="3"></path><g id="node_text2" fill="black"><text id="kity_text_87" text-rendering="inherit" font-size="12" dy=".8em" y="157.70000004768372" x="109.5">vuex-actions</text></g></g><g id="minder_node6"><g id="node_expander2" style="cursor: pointer;" display="none"><path id="kity_path_174" fill="white" stroke="gray" d="M104.5,191.5A6,6,0,1,1,92.5,191.5A6,6,0,1,1,104.5,191.5"></path><path id="kity_path_175" fill="none" stroke="gray"></path></g><path id="node_outline3" fill="none" stroke="none" d="M109.5,182.5h102a5,5,0,0,1,5,5v8a5,5,0,0,1,-5,5h-102a5,5,0,0,1,-5,-5v-8a5,5,0,0,1,5,-5z"></path><g id="node_text3" fill="black"><text id="kity_text_89" text-rendering="inherit" font-size="12" dy=".8em" y="183.70000004768372" x="109.5">vuex-localstorage</text></g></g><g id="minder_node7"><g id="node_expander4" style="cursor: pointer;" display="none"><path id="kity_path_180" fill="white" stroke="gray" d="M76.5,217.5A6,6,0,1,1,64.5,217.5A6,6,0,1,1,76.5,217.5"></path><path id="kity_path_181" fill="none" stroke="gray"></path></g><path id="node_outline5" fill="none" stroke="none" d="M81.5,208.5h61a5,5,0,0,1,5,5v8a5,5,0,0,1,-5,5h-61a5,5,0,0,1,-5,-5v-8a5,5,0,0,1,5,-5z"></path><g id="node_text5" fill="black"><text id="kity_text_93" text-rendering="inherit" font-size="12" dy=".8em" y="209.70000004768372" x="81.5">vue-router</text></g></g><g id="minder_node8"><g id="node_expander5" style="cursor: pointer;" display="none"><path id="kity_path_183" fill="white" stroke="gray" d="M76.5,243.5A6,6,0,1,1,64.5,243.5A6,6,0,1,1,76.5,243.5"></path><path id="kity_path_184" fill="none" stroke="gray"></path></g><path id="node_outline6" fill="none" stroke="none" d="M81.5,234.5h59a5,5,0,0,1,5,5v8a5,5,0,0,1,-5,5h-59a5,5,0,0,1,-5,-5v-8a5,5,0,0,1,5,-5z"></path><g id="node_text6" fill="black"><text id="kity_text_95" text-rendering="inherit" font-size="12" dy=".8em" y="235.70000004768372" x="81.5">plato-i18n</text></g></g><g id="minder_node9"><g id="node_expander6" style="cursor: pointer;" display="none"><path id="kity_path_186" fill="white" stroke="gray" d="M76.5,269.5A6,6,0,1,1,64.5,269.5A6,6,0,1,1,76.5,269.5"></path><path id="kity_path_187" fill="none" stroke="gray"></path></g><path id="node_outline7" fill="none" stroke="none" d="M81.5,260.5h85a5,5,0,0,1,5,5v8a5,5,0,0,1,-5,5h-85a5,5,0,0,1,-5,-5v-8a5,5,0,0,1,5,-5z"></path><g id="node_text7" fill="black"><text id="kity_text_97" text-rendering="inherit" font-size="12" dy=".8em" y="261.7000000476837" x="81.5">plato-validator</text></g></g><g id="minder_node10"><g id="node_expander10" style="cursor: pointer;"><path id="kity_path_198" fill="white" stroke="gray" d="M48.5,295.5A6,6,0,1,1,36.5,295.5A6,6,0,1,1,48.5,295.5"></path><path id="kity_path_199" fill="none" stroke="gray" d="M38,295.5L47,295.5"></path></g><path id="node_outline11" fill="none" stroke="none" d="M53.5,286.5h78a5,5,0,0,1,5,5v8a5,5,0,0,1,-5,5h-78a5,5,0,0,1,-5,-5v-8a5,5,0,0,1,5,-5z"></path><g id="node_text11" fill="black"><text id="kity_text_105" text-rendering="inherit" font-size="12" dy=".8em" y="287.7000000476837" x="53.5">plato-request</text></g></g><g id="minder_node11"><g id="node_expander8" style="cursor: pointer;" display="none"><path id="kity_path_192" fill="white" stroke="gray" d="M76.5,321.5A6,6,0,1,1,64.5,321.5A6,6,0,1,1,76.5,321.5"></path><path id="kity_path_193" fill="none" stroke="gray"></path></g><path id="node_outline9" fill="none" stroke="none" d="M81.5,312.5h79a5,5,0,0,1,5,5v8a5,5,0,0,1,-5,5h-79a5,5,0,0,1,-5,-5v-8a5,5,0,0,1,5,-5z"></path><g id="node_text9" fill="black"><text id="kity_text_101" text-rendering="inherit" font-size="12" dy=".8em" y="313.7000000476837" x="81.5">whatwg-fetch</text></g></g><g id="minder_node12"><g id="node_expander9" style="cursor: pointer;" display="none"><path id="kity_path_195" fill="white" stroke="gray" d="M76.5,347.5A6,6,0,1,1,64.5,347.5A6,6,0,1,1,76.5,347.5"></path><path id="kity_path_196" fill="none" stroke="gray"></path></g><path id="node_outline10" fill="none" stroke="none" d="M81.5,338.5h67a5,5,0,0,1,5,5v8a5,5,0,0,1,-5,5h-67a5,5,0,0,1,-5,-5v-8a5,5,0,0,1,5,-5z"></path><g id="node_text10" fill="black"><text id="kity_text_103" text-rendering="inherit" font-size="12" dy=".8em" y="339.7000000476837" x="81.5">nd-promise</text></g></g><g id="minder_node13"><g id="node_expander17" style="cursor: pointer;"><path id="kity_path_219" fill="white" stroke="gray" d="M270.5,59.5A6,6,0,1,1,258.5,59.5A6,6,0,1,1,270.5,59.5"></path><path id="kity_path_220" fill="none" stroke="gray" d="M260,59.5L269,59.5"></path></g><path id="node_outline18" fill="rgb(238, 246, 238)" stroke="rgb(115, 191, 118)" d="M235.5,66.5h58a3,3,0,0,1,3,3v20a3,3,0,0,1,-3,3h-58a3,3,0,0,1,-3,-3v-20a3,3,0,0,1,3,-3z" stroke-width="1"></path><g id="node_text18" fill="black"><text id="kity_text_119" text-rendering="inherit" font-size="14" dy=".8em" y="70.40000009536743" x="252.5">dev</text></g></g><g id="minder_node14"><g id="node_expander14" style="cursor: pointer;"><path id="kity_path_210" fill="white" stroke="gray" d="M260.5,113.5A6,6,0,1,1,248.5,113.5A6,6,0,1,1,260.5,113.5"></path><path id="kity_path_211" fill="none" stroke="gray" d="M250,113.5L259,113.5"></path></g><path id="node_outline15" fill="none" stroke="none" d="M265.5,104.5h51a5,5,0,0,1,5,5v8a5,5,0,0,1,-5,5h-51a5,5,0,0,1,-5,-5v-8a5,5,0,0,1,5,-5z"></path><g id="node_text15" fill="black"><text id="kity_text_113" text-rendering="inherit" font-size="12" dy=".8em" y="105.70000004768372" x="265.5">webpack</text></g></g><g id="minder_node15"><g id="node_expander12" style="cursor: pointer;" display="none"><path id="kity_path_204" fill="white" stroke="gray" d="M288.5,139.5A6,6,0,1,1,276.5,139.5A6,6,0,1,1,288.5,139.5"></path><path id="kity_path_205" fill="none" stroke="gray"></path></g><path id="node_outline13" fill="none" stroke="none" d="M293.5,130.5h32a5,5,0,0,1,5,5v8a5,5,0,0,1,-5,5h-32a5,5,0,0,1,-5,-5v-8a5,5,0,0,1,5,-5z" stroke-width="3"></path><g id="node_text13" fill="black"><text id="kity_text_109" text-rendering="inherit" font-size="12" dy=".8em" y="131.70000004768372" x="293.5">babel</text></g></g><g id="minder_node16"><g id="node_expander13" style="cursor: pointer;" display="none"><path id="kity_path_207" fill="white" stroke="gray" d="M288.5,165.5A6,6,0,1,1,276.5,165.5A6,6,0,1,1,288.5,165.5"></path><path id="kity_path_208" fill="none" stroke="gray"></path></g><path id="node_outline14" fill="none" stroke="none" d="M293.5,156.5h42a5,5,0,0,1,5,5v8a5,5,0,0,1,-5,5h-42a5,5,0,0,1,-5,-5v-8a5,5,0,0,1,5,-5z"></path><g id="node_text14" fill="black"><text id="kity_text_111" text-rendering="inherit" font-size="12" dy=".8em" y="157.70000004768372" x="293.5">postcss</text></g></g><g id="minder_node17"><g id="node_expander15" style="cursor: pointer;" display="none"><path id="kity_path_213" fill="white" stroke="gray" d="M260.5,191.5A6,6,0,1,1,248.5,191.5A6,6,0,1,1,260.5,191.5"></path><path id="kity_path_214" fill="none" stroke="gray"></path></g><path id="node_outline16" fill="none" stroke="none" d="M265.5,182.5h21a5,5,0,0,1,5,5v8a5,5,0,0,1,-5,5h-21a5,5,0,0,1,-5,-5v-8a5,5,0,0,1,5,-5z"></path><g id="node_text16" fill="black"><text id="kity_text_115" text-rendering="inherit" font-size="12" dy=".8em" y="183.70000004768372" x="265.5">koa</text></g></g><g id="minder_node18"><g id="node_expander16" style="cursor: pointer;" display="none"><path id="kity_path_216" fill="white" stroke="gray" d="M260.5,217.5A6,6,0,1,1,248.5,217.5A6,6,0,1,1,260.5,217.5"></path><path id="kity_path_217" fill="none" stroke="gray"></path></g><path id="node_outline17" fill="none" stroke="none" d="M265.5,208.5h56a5,5,0,0,1,5,5v8a5,5,0,0,1,-5,5h-56a5,5,0,0,1,-5,-5v-8a5,5,0,0,1,5,-5z"></path><g id="node_text17" fill="black"><text id="kity_text_117" text-rendering="inherit" font-size="12" dy=".8em" y="209.70000004768372" x="265.5">nodemon</text></g></g><g id="minder_node19"><g id="node_expander25" style="cursor: pointer;"><path id="kity_path_243" fill="white" stroke="gray" d="M395,59.5A6,6,0,1,1,383,59.5A6,6,0,1,1,395,59.5"></path><path id="kity_path_244" fill="none" stroke="gray" d="M384.5,59.5L393.5,59.5"></path></g><path id="node_outline26" fill="rgb(238, 246, 238)" stroke="rgb(115, 191, 118)" d="M359.5,66.5h59a3,3,0,0,1,3,3v20a3,3,0,0,1,-3,3h-59a3,3,0,0,1,-3,-3v-20a3,3,0,0,1,3,-3z" stroke-width="1"></path><g id="node_text26" fill="black"><text id="kity_text_135" text-rendering="inherit" font-size="14" dy=".8em" y="70.40000009536743" x="376.5">test</text></g></g><g id="minder_node20"><g id="node_expander23" style="cursor: pointer;"><path id="kity_path_237" fill="white" stroke="gray" d="M384.5,113.5A6,6,0,1,1,372.5,113.5A6,6,0,1,1,384.5,113.5"></path><path id="kity_path_238" fill="none" stroke="gray" d="M374,113.5L383,113.5"></path></g><path id="node_outline24" fill="none" stroke="none" d="M389.5,104.5h36a5,5,0,0,1,5,5v8a5,5,0,0,1,-5,5h-36a5,5,0,0,1,-5,-5v-8a5,5,0,0,1,5,-5z" stroke-width="3"></path><g id="node_text24" fill="black"><text id="kity_text_131" text-rendering="inherit" font-size="12" dy=".8em" y="105.70000004768372" x="389.5">karma</text></g></g><g id="minder_node21"><g id="node_expander18" style="cursor: pointer;" display="none"><path id="kity_path_222" fill="white" stroke="gray" d="M412.5,139.5A6,6,0,1,1,400.5,139.5A6,6,0,1,1,412.5,139.5"></path><path id="kity_path_223" fill="none" stroke="gray"></path></g><path id="node_outline19" fill="none" stroke="none" d="M417.5,130.5h39a5,5,0,0,1,5,5v8a5,5,0,0,1,-5,5h-39a5,5,0,0,1,-5,-5v-8a5,5,0,0,1,5,-5z"></path><g id="node_text19" fill="black"><text id="kity_text_121" text-rendering="inherit" font-size="12" dy=".8em" y="131.70000004768372" x="417.5">mocha</text></g></g><g id="minder_node22"><g id="node_expander19" style="cursor: pointer;" display="none"><path id="kity_path_225" fill="white" stroke="gray" d="M412.5,165.5A6,6,0,1,1,400.5,165.5A6,6,0,1,1,412.5,165.5"></path><path id="kity_path_226" fill="none" stroke="gray"></path></g><path id="node_outline20" fill="none" stroke="none" d="M417.5,156.5h23a5,5,0,0,1,5,5v8a5,5,0,0,1,-5,5h-23a5,5,0,0,1,-5,-5v-8a5,5,0,0,1,5,-5z"></path><g id="node_text20" fill="black"><text id="kity_text_123" text-rendering="inherit" font-size="12" dy=".8em" y="157.70000004768372" x="417.5">chai</text></g></g><g id="minder_node23"><g id="node_expander20" style="cursor: pointer;" display="none"><path id="kity_path_228" fill="white" stroke="gray" d="M412.5,191.5A6,6,0,1,1,400.5,191.5A6,6,0,1,1,412.5,191.5"></path><path id="kity_path_229" fill="none" stroke="gray"></path></g><path id="node_outline21" fill="none" stroke="none" d="M417.5,182.5h31a5,5,0,0,1,5,5v8a5,5,0,0,1,-5,5h-31a5,5,0,0,1,-5,-5v-8a5,5,0,0,1,5,-5z"></path><g id="node_text21" fill="black"><text id="kity_text_125" text-rendering="inherit" font-size="12" dy=".8em" y="183.70000004768372" x="417.5">sinon</text></g></g><g id="minder_node24"><g id="node_expander21" style="cursor: pointer;" display="none"><path id="kity_path_231" fill="white" stroke="gray" d="M412.5,217.5A6,6,0,1,1,400.5,217.5A6,6,0,1,1,412.5,217.5"></path><path id="kity_path_232" fill="none" stroke="gray"></path></g><path id="node_outline22" fill="none" stroke="none" d="M417.5,208.5h61a5,5,0,0,1,5,5v8a5,5,0,0,1,-5,5h-61a5,5,0,0,1,-5,-5v-8a5,5,0,0,1,5,-5z"></path><g id="node_text22" fill="black"><text id="kity_text_127" text-rendering="inherit" font-size="12" dy=".8em" y="209.70000004768372" x="417.5">phantomjs</text></g></g><g id="minder_node25"><g id="node_expander22" style="cursor: pointer;" display="none"><path id="kity_path_234" fill="white" stroke="gray" d="M412.5,243.5A6,6,0,1,1,400.5,243.5A6,6,0,1,1,412.5,243.5"></path><path id="kity_path_235" fill="none" stroke="gray"></path></g><path id="node_outline23" fill="none" stroke="none" d="M417.5,234.5h52a5,5,0,0,1,5,5v8a5,5,0,0,1,-5,5h-52a5,5,0,0,1,-5,-5v-8a5,5,0,0,1,5,-5z"></path><g id="node_text23" fill="black"><text id="kity_text_129" text-rendering="inherit" font-size="12" dy=".8em" y="235.70000004768372" x="417.5">coverage</text></g></g><g id="minder_node26"><g id="node_expander24" style="cursor: pointer;" display="none"><path id="kity_path_240" fill="white" stroke="gray" d="M384.5,347.5A6,6,0,1,1,372.5,347.5A6,6,0,1,1,384.5,347.5"></path><path id="kity_path_241" fill="none" stroke="gray"></path></g><path id="node_outline25" fill="none" stroke="none" d="M389.5,338.5h31a5,5,0,0,1,5,5v8a5,5,0,0,1,-5,5h-31a5,5,0,0,1,-5,-5v-8a5,5,0,0,1,5,-5z"></path><g id="node_text25" fill="black"><text id="kity_text_133" text-rendering="inherit" font-size="12" dy=".8em" y="339.7000000476837" x="389.5">eslint</text></g></g><g id="minder_node33"><g id="node_expander32" style="cursor: pointer;"><path id="kity_path_284" fill="white" stroke="gray" d="M384.5,269.5A6,6,0,1,1,372.5,269.5A6,6,0,1,1,384.5,269.5"></path><path id="kity_path_285" fill="none" stroke="gray" d="M374,269.5L383,269.5"></path></g><path id="node_outline33" fill="none" stroke="none" d="M389.5,260.5h64a5,5,0,0,1,5,5v8a5,5,0,0,1,-5,5h-64a5,5,0,0,1,-5,-5v-8a5,5,0,0,1,5,-5z" stroke-width="3"></path><g id="node_text33" fill="black"><text id="kity_text_281" text-rendering="inherit" font-size="12" dy=".8em" y="261.7000000476837" x="389.5">nightwatch</text></g></g><g id="minder_node34"><g id="node_expander33" style="cursor: pointer;" display="none"><path id="kity_path_292" fill="white" stroke="gray" d="M412.5,295.5A6,6,0,1,1,400.5,295.5A6,6,0,1,1,412.5,295.5"></path><path id="kity_path_293" fill="none" stroke="gray"></path></g><path id="node_outline34" fill="none" stroke="none" d="M417.5,286.5h52a5,5,0,0,1,5,5v8a5,5,0,0,1,-5,5h-52a5,5,0,0,1,-5,-5v-8a5,5,0,0,1,5,-5z" stroke-width="3"></path><g id="node_text34" fill="black"><text id="kity_text_289" text-rendering="inherit" font-size="12" dy=".8em" y="287.7000000476837" x="417.5">selenium</text></g></g><g id="minder_node35"><g id="node_expander34" style="cursor: pointer;" display="none"><path id="kity_path_300" fill="white" stroke="gray" d="M412.5,321.5A6,6,0,1,1,400.5,321.5A6,6,0,1,1,412.5,321.5"></path><path id="kity_path_301" fill="none" stroke="gray"></path></g><path id="node_outline35" fill="none" stroke="none" d="M417.5,312.5h57a5,5,0,0,1,5,5v8a5,5,0,0,1,-5,5h-57a5,5,0,0,1,-5,-5v-8a5,5,0,0,1,5,-5z" stroke-width="3"></path><g id="node_text35" fill="black"><text id="kity_text_297" text-rendering="inherit" font-size="12" dy=".8em" y="313.7000000476837" x="417.5">webdriver</text></g></g></g></g></svg>
